<svg xmlns="http://www.w3.org/2000/svg" xmlns:xlink="http://www.w3.org/1999/xlink" viewBox="0 0 1024 1024" width="375" height="375" style="border-color: rgba(187,187,187,1);border-width: 0px;border-style: solid" filter="none">
    
    <g>
    
    <title>暂无信号</title>
    <defs>
        <linearGradient id="linearGradient-1" y2="44.0501254%" x2="50%" y1="-29.88559%" x1="50%">
            <stop offset="0%" stop-color="#CFDFFA"></stop>
            <stop offset="100%" stop-opacity="0" stop-color="#EAF0FC"></stop>
        </linearGradient>
        <linearGradient id="linearGradient-2" y2="69.8229089%" x2="53.6226986%" y1="33.7484636%" x1="50%">
            <stop offset="0%" stop-color="#CFDFFA"></stop>
            <stop offset="100%" stop-opacity="0" stop-color="#EAF0FC"></stop>
        </linearGradient>
        <linearGradient id="linearGradient-3" y2="66.4977364%" x2="53.6226986%" y1="36.47456%" x1="50%">
            <stop offset="0%" stop-color="#CFDFFA"></stop>
            <stop offset="100%" stop-opacity="0" stop-color="#EAF0FC"></stop>
        </linearGradient>
        <linearGradient id="linearGradient-4" y2="100%" x2="57.28025%" y1="11.4973736%" x1="50%">
            <stop offset="0%" stop-color="#BFD4FA"></stop>
            <stop offset="100%" stop-color="#5792F0"></stop>
        </linearGradient>
        <linearGradient id="linearGradient-5" y2="131.881015%" x2="51.9400923%" y1="11.4973736%" x1="50%">
            <stop offset="0%" stop-color="#BFD4FA"></stop>
            <stop offset="100%" stop-color="#5792F0"></stop>
        </linearGradient>
        <linearGradient id="linearGradient-6" y2="128.49897%" x2="74.2827921%" y1="13.0877007%" x1="50%">
            <stop offset="0%" stop-color="#BFD4FA"></stop>
            <stop offset="100%" stop-color="#5792F0"></stop>
        </linearGradient>
        <linearGradient id="linearGradient-7" y2="131.881015%" x2="54.0733641%" y1="11.4973736%" x1="50%">
            <stop offset="0%" stop-color="#BFD4FA"></stop>
            <stop offset="100%" stop-color="#5792F0"></stop>
        </linearGradient>
        <linearGradient id="linearGradient-8" y2="131.881015%" x2="51.9795749%" y1="11.4973736%" x1="50%">
            <stop offset="0%" stop-color="#BFD4FA"></stop>
            <stop offset="100%" stop-color="#5792F0"></stop>
        </linearGradient>
        <linearGradient id="linearGradient-9" y2="131.881015%" x2="55.3643684%" y1="11.4973736%" x1="50%">
            <stop offset="0%" stop-color="#BFD4FA"></stop>
            <stop offset="100%" stop-color="#5792F0"></stop>
        </linearGradient>
        <linearGradient id="linearGradient-10" y2="53.7022797%" x2="74.2827921%" y1="48.2590898%" x1="50%">
            <stop offset="0%" stop-color="#BFD4FA"></stop>
            <stop offset="100%" stop-color="#5792F0"></stop>
        </linearGradient>
        <linearGradient id="linearGradient-11" y2="63.7290567%" x2="53.9418327%" y1="25.5188459%" x1="-28.0994016%">
            <stop offset="0%" stop-color="#5792F0"></stop>
            <stop offset="100%" stop-opacity="0" stop-color="#BFD4FA"></stop>
        </linearGradient>
        <linearGradient id="linearGradient-12" y2="40.5482042%" x2="-9.54962274%" y1="65.3004247%" x1="109.435452%">
            <stop offset="0%" stop-color="#5792F0"></stop>
            <stop offset="100%" stop-color="#BFD4FA"></stop>
        </linearGradient>
        <linearGradient id="linearGradient-13" y2="0%" x2="48.2499703%" y1="130.939247%" x1="51.7466745%">
            <stop offset="0%" stop-color="#5792F0"></stop>
            <stop offset="100%" stop-color="#BFD4FA"></stop>
        </linearGradient>
        <linearGradient id="linearGradient-14" y2="0%" x2="46.0624331%" y1="130.939247%" x1="53.9300177%">
            <stop offset="0%" stop-color="#5792F0"></stop>
            <stop offset="100%" stop-color="#BFD4FA"></stop>
        </linearGradient>
        <linearGradient id="linearGradient-15" y2="21.8495975%" x2="20.8506904%" y1="155.057886%" x1="124.711255%">
            <stop offset="0%" stop-color="#5792F0"></stop>
            <stop offset="100%" stop-color="#BFD4FA"></stop>
        </linearGradient>
        <linearGradient id="linearGradient-16" y2="0%" x2="22.2267078%" y1="91.6459243%" x1="103.3614%">
            <stop offset="0%" stop-color="#5792F0"></stop>
            <stop offset="100%" stop-color="#BFD4FA"></stop>
        </linearGradient>
        <linearGradient id="linearGradient-17" y2="4.48907403%" x2="-9.54962274%" y1="208.453267%" x1="204.653411%">
            <stop offset="0%" stop-color="#5792F0"></stop>
            <stop offset="100%" stop-color="#BFD4FA"></stop>
        </linearGradient>
        <linearGradient id="linearGradient-18" y2="0%" x2="-9.54962274%" y1="130.939247%" x1="109.435452%">
            <stop offset="0%" stop-color="#5792F0"></stop>
            <stop offset="100%" stop-color="#BFD4FA"></stop>
        </linearGradient>
        <linearGradient id="linearGradient-19" y2="19.7530864%" x2="-9.54962274%" y1="98.9632481%" x1="109.435452%">
            <stop offset="0%" stop-color="#5792F0"></stop>
            <stop offset="100%" stop-color="#BFD4FA"></stop>
        </linearGradient>
        <linearGradient id="linearGradient-20" y2="73.6326896%" x2="100%" y1="11.7098971%" x1="14.3474826%">
            <stop offset="0%" stop-color="#BFD4FA"></stop>
            <stop offset="100%" stop-color="#5792F0"></stop>
        </linearGradient>
        <linearGradient id="linearGradient-21" y2="93.1271749%" x2="50%" y1="-31.010887%" x1="43.707299%">
            <stop offset="0%" stop-color="#BFD4FA"></stop>
            <stop offset="100%" stop-color="#5792F0"></stop>
        </linearGradient>
        <linearGradient id="linearGradient-22" y2="100%" x2="50%" y1="12.9243097%" x1="50%">
            <stop offset="0%" stop-color="#FFCDA5"></stop>
            <stop offset="100%" stop-color="#FFE8D1"></stop>
        </linearGradient>
        <linearGradient id="linearGradient-23" y2="100%" x2="88.72%" y1="0%" x1="42.3145579%">
            <stop offset="0%" stop-color="#FFF2DF"></stop>
            <stop offset="100%" stop-color="#FEE0BC"></stop>
        </linearGradient>
        <linearGradient id="linearGradient-24" y2="61.3220709%" x2="210.359568%" y1="25.7376426%" x1="35.6067948%">
            <stop offset="0%" stop-color="#FEE127"></stop>
            <stop offset="100%" stop-color="#F9AB21"></stop>
        </linearGradient>
        <linearGradient id="linearGradient-25" y2="100%" x2="50%" y1="0%" x1="50%">
            <stop offset="0%" stop-color="#FEE127"></stop>
            <stop offset="100%" stop-color="#F9AB21"></stop>
        </linearGradient>
        <linearGradient id="linearGradient-26" y2="38.1816114%" x2="126.959811%" y1="25.7376426%" x1="33.2709467%">
            <stop offset="0%" stop-color="#FEE127"></stop>
            <stop offset="100%" stop-color="#F9AB21"></stop>
        </linearGradient>
    </defs>
    <g fill-rule="evenodd" fill="none" stroke-width="1" stroke="none" id="暂无信号">
        <rect height="1024" width="1024" y="0" x="0" id="矩形"></rect>
        <g transform="translate(32.000000, 149.000000)" id="编组">
            <g id="背景">
                <ellipse ry="250" rx="480" cy="766" cx="480" fill="url(#linearGradient-1)" id="椭圆形"></ellipse>
                <path fill="url(#linearGradient-2)" id="云" d="M814,116.212121 C814,130.606061 800.181818,142.121212 782.727273,142.121212 L686,142.121212 C668.545455,140.969697 654,130.030303 654,115.060606 C654,105.272727 660.545455,96.6363636 670,92.030303 C669.272727,90.3030303 668.545455,88.5757576 668.545455,86.8484848 C668.545455,77.0606061 678,68.4242424 690.363636,68.4242424 C695.454545,68.4242424 699.818182,70.1515152 703.454545,72.4545455 C712.181818,59.2121212 728.181818,50 747.090909,50 C773.272727,50 794.363636,67.8484848 794.363636,89.7272727 L794.363636,92.030303 C806,96.0606061 814,105.272727 814,116.212121 Z"></path>
                <path fill="url(#linearGradient-3)" id="云" d="M166.222222,0 C190.894883,0 211.8847,15.7681262 219.664106,37.7768098 L256.5,37.7777778 C266.164983,37.7777778 274,45.6127947 274,55.2777778 L274,98.0555556 C274,107.720539 266.164983,115.555556 256.5,115.555556 L78.1666667,115.555556 C68.5016835,115.555556 60.6666667,107.720539 60.6666667,98.0555556 L60.6669111,85.6467185 C56.4406838,78.8453656 54,70.81882 54,62.2222222 C54,37.6762333 73.8984556,17.7777778 98.4444444,17.7777778 C106.377692,17.7777778 113.825468,19.8563268 120.272891,23.4985432 C130.565544,9.26259942 147.312185,0 166.222222,0 Z"></path>
                <g transform="translate(170.000000, 570.000000)" id="草">
                    <ellipse ry="4" rx="12.8" cy="78" cx="26.8" fill="#CCDCF6" id="椭圆形"></ellipse>
                    <path fill-rule="nonzero" fill="url(#linearGradient-4)" id="路径-42" d="M13.2096985,76.4334696 C14.9527214,47.3262499 22.2548023,30.479152 35.1159413,25.892176 C40.1793835,25.2161532 45.8226773,24.1997042 41.8878028,30.7617951 C37.9529282,37.3238861 27.4160559,34.7701422 16.879533,76.4161198 C15.9265298,78.1966928 14.7032516,78.202476 13.2096985,76.4334696 Z"></path>
                    <path fill-rule="nonzero" fill="url(#linearGradient-5)" id="路径-41" d="M12.9692534,76.0688036 C9.54744327,48.8820916 6.74680699,31.7849012 4.56734456,24.7772324 C1.2981509,14.2657291 -5.66257226,-5.963969 8.82439601,1.68943966 C23.3113643,9.34284832 25.0241679,48.6011298 18.327685,72.4929976 C16.2462776,78.5387167 14.4601337,79.730652 12.9692534,76.0688036 Z"></path>
                </g>
                <g fill-rule="nonzero" transform="translate(686.120225, 515.426704)" id="草">
                    <path fill="url(#linearGradient-6)" id="路径-43" d="M65.8576891,95.4430222 C63.3395468,83.9806553 55.9856639,75.9680543 43.7960405,71.4052192 C29.8759357,66.9305791 22.2494886,61.6117041 30.9599814,57.7550267 C38.3155159,57.1703291 54.0022982,51.4419217 65.8576891,85.6583003 C66.6827635,88.9740418 66.6827635,92.2356158 65.8576891,95.4430222 Z"></path>
                    <path fill="url(#linearGradient-7)" id="路径-44" d="M66.4764949,97.2611071 C59.1454779,69.8960192 50.8174439,49.9170768 41.4923928,37.3242799 C34.6452589,28.7188412 35.1250476,16.405104 41.4923928,13.6218727 C48.0100381,12.8970718 60.0222617,11.7760378 69.0669112,58.9373338 C69.6381527,62.1812743 72.8251647,81.1589956 69.0669112,93.4066801 C68.5106318,95.0875751 67.6471596,96.3723841 66.4764949,97.2611071 Z"></path>
                    <path fill="url(#linearGradient-8)" id="路径-45" d="M68.1696321,91.0804085 C71.4853494,78.835463 71.0643832,62.8586309 66.9067333,43.1499123 C60.5471905,24.0440706 49.6921744,0.541796566 69.4774519,0 C77.5044316,1.09154868 87.1972186,9.50543486 83.5347739,51.4392686 C81.3029234,68.3604083 77.4213217,78.3565362 73.3477064,91.0804085 C71.9266832,91.8737887 70.2006584,91.8737887 68.1696321,91.0804085 Z"></path>
                    <path fill="url(#linearGradient-9)" id="路径-46" d="M72.0427224,95.836031 C70.7154818,61.2121058 77.0522244,36.363996 91.0529503,21.2917016 C94.833726,16.2551414 109.217459,11.5380494 109.163159,27.3263959 C107.661554,34.1152854 104.448437,48.6087163 85.9202741,70.7214245 C79.8162941,78.7025415 75.8046094,90.365172 75.7655073,93.0996265 C75.7394392,94.9225962 74.4985109,95.834731 72.0427224,95.836031 Z"></path>
                    <path fill="url(#linearGradient-10)" id="路径-47" d="M0,100.407711 C13.8643816,97.8236334 21.5103995,95.6299697 22.9380537,93.8267198 C25.0795349,91.1218449 43.9450099,79.5080271 55.7094426,89.2905093 C58.2703723,85.9992821 66.4835238,83.4391237 71.1837342,89.2905093 C73.3341085,80.0524096 86.7490663,74.1360276 92.583369,75.0945046 C99.1537088,74.5803177 118.55034,74.7942504 120,100.407711 C114.707841,100.530921 74.7078414,100.530921 0,100.407711 Z"></path>
                </g>
            </g>
            <g fill-rule="nonzero" transform="translate(227.725830, 75.005051)" id="暂无信号">
                <polygon points="680 600.624196 451.617217 663.127027 278.082267 510.709715 377.887342 495.424253" opacity="0.3" fill="url(#linearGradient-11)" id="路径"></polygon>
                <path fill="url(#linearGradient-12)" id="形状结合" d="M317.644639,461.434318 C349.344382,461.434318 375.49133,467.636321 379.227747,475.642656 L379.685631,475.643067 L379.685631,499.020832 L379.679646,499.020318 L379.685631,499.1984 C379.685631,508.047527 352.461689,515.237916 318.6706,515.380839 L317.644639,515.383007 C283.380345,515.383007 255.603646,508.136912 255.603646,499.1984 C255.603646,499.139033 255.604872,499.07974 255.607316,499.020523 L255.603646,499.020832 L255.603646,475.643067 L256.061531,475.642656 C259.797948,467.636321 285.944896,461.434318 317.644639,461.434318 Z"></path>
                <polygon points="320.711112 471.812643 329.250133 476.729411 342.290587 471.812643 342.290587 350.849137 320.711112 350.849137" fill="url(#linearGradient-13)" id="路径"></polygon>
                <rect height="125.880274" width="32.3692134" y="350.380102" x="296.055797" fill="url(#linearGradient-14)" id="矩形"></rect>
                <path fill="url(#linearGradient-15)" id="路径" d="M359.771957,125.335483 C424.687035,190.253291 424.687035,295.500186 359.771957,360.417994 C294.85688,425.335802 189.614414,425.335802 124.699337,360.417994 C121.132012,356.850519 117.769266,353.155178 114.585524,349.370331 C112.769897,347.196601 111.0182,344.984511 109.317647,342.746847 C91.9668968,312.57036 123.139431,244.41753 183.451509,184.102914 C243.763587,123.788299 311.91355,92.6144526 342.088768,109.965933 C344.326337,111.65377 346.525548,113.405541 348.711973,115.234032 C352.522233,118.40512 356.217419,121.768008 359.771957,125.335483 Z"></path>
                <path transform="translate(223.195913, 228.229973) rotate(13.000000) translate(-223.195913, -228.229973)" fill="url(#linearGradient-16)" id="路径" d="M316.504811,91.6039659 C316.698406,91.8874597 316.881811,92.1560327 317.065216,92.4693679 C336.923934,123.773048 312.082706,208.865939 261.02471,283.618768 C209.966715,358.371597 151.867994,394.763244 130.491088,365.682752 C130.277115,365.414179 130.09371,365.145606 129.900115,364.862112 C128.494008,362.803052 127.301874,360.505261 126.293145,357.968737 C112.466423,322.755828 137.307651,243.228367 185.370027,172.84731 C233.432403,102.466253 287.740748,66.0895273 311.78722,86.3369502 C313.52957,87.7991812 315.098704,89.5598267 316.504811,91.6039659 Z"></path>
                <polygon points="288.339847 249.924548 259.269352 278.364494 181.02805 186.697173 192.84859 175.983273" transform="translate(234.683949, 227.173883) rotate(-4.000000) translate(-234.683949, -227.173883)" fill="url(#linearGradient-17)" id="路径"></polygon>
                <circle r="20.6803308" cy="172.269073" cx="172.551007" transform="translate(172.551007, 172.269073) rotate(-4.000000) translate(-172.551007, -172.269073)" fill="url(#linearGradient-18)" id="椭圆形"></circle>
                <path transform="translate(101.726624, 101.726624) rotate(-45.000000) translate(-101.726624, -101.726624)" fill="url(#linearGradient-19)" id="形状" d="M82.9943144,162.155535 C81.3968691,160.554283 80.4993792,158.382129 80.4993792,156.117156 C80.4993792,153.852184 81.3968691,151.68003 82.9943144,150.078778 L89.0137674,144.042534 L82.9943144,138.006289 C79.6686871,134.671385 79.6686872,129.264436 82.9943147,125.929532 C86.3199423,122.594628 91.7118498,122.594628 95.0374775,125.929532 L101.05693,131.970045 L107.076383,125.929532 C110.402011,122.593449 115.794872,122.592493 119.121675,125.927397 C122.448478,129.262302 122.449431,134.670206 119.123803,138.006289 L113.100093,144.051071 L119.123803,150.087316 C122.449431,153.423399 122.448478,158.831303 119.121675,162.166207 C115.794872,165.501112 110.402011,165.500156 107.076383,162.164073 L101.052673,156.12356 L95.0417345,162.159804 C93.4449361,163.761706 91.2788244,164.661699 89.020153,164.661699 C86.7614816,164.661699 84.5953699,163.761706 82.9985716,162.159804 L82.9943144,162.155535 Z M50.7217028,121.421559 C45.5994945,118.353927 43.9246415,111.704613 46.9797657,106.565738 C58.2272459,90.7466115 75.5442497,80.3481576 94.7607699,77.8743679 C109.443297,76.2948697 131.835321,79.6630428 155.210722,104.71303 C159.147642,109.102599 158.857171,115.844399 154.557377,119.877106 C150.257584,123.909814 143.530154,123.749991 139.425622,119.517623 C125.551932,104.648996 111.303623,97.8913052 97.072342,99.4195764 C84.6151998,101.211721 73.3247283,107.745624 65.5447122,117.664914 C64.0764116,120.132528 61.6907135,121.914161 58.9124516,122.617869 C56.1341898,123.321577 53.1909486,122.889715 50.7302169,121.41729 L50.7217028,121.421559 Z M164.384641,90.7237988 C142.380007,69.6695154 119.936898,59.518038 97.6810985,60.5383084 C65.0253533,62.0495039 42.314051,87.1464488 39.8364544,89.9938144 C37.3159546,92.963969 33.3980661,94.3465032 29.5781493,93.6137383 C25.7582326,92.8809734 22.6258077,90.1459955 21.3764433,86.4526775 C20.1270789,82.7593595 20.9535868,78.6776839 23.5405096,75.7655245 C28.6021288,69.934188 55.9238043,40.7604303 96.6849515,38.8821082 C125.058115,37.5715516 152.877865,49.7379563 179.305562,75.044078 C182.097922,77.7176415 183.255808,81.6819781 182.343055,85.4437607 C181.430303,89.2055433 178.58558,92.1932675 174.880466,93.2814866 C171.175353,94.3697057 167.172744,93.3930933 164.380384,90.7195298 L164.384641,90.7237988 Z"></path>
            </g>
            <g transform="translate(316.000000, 584.600000) scale(-1, 1) translate(-316.000000, -584.600000) translate(264.000000, 453.200000)" id="人物">
                <ellipse ry="16" rx="50" cy="246.8" cx="54" fill="#CCDCF6" id="椭圆形"></ellipse>
                <path fill-rule="nonzero" fill="url(#linearGradient-20)" id="路径-52" d="M38.6300477,235.235362 L37.8007519,240.654984 C34.4234067,240.760606 30.750592,241.753363 26.7823078,243.633257 C24.2287309,245.271596 24.1150782,246.01393 24.0328715,247.424613 C23.9780671,248.365068 31.1929355,248.365068 45.6774767,247.424613 L45.6774767,233.249114 L38.6300477,235.235362 Z"></path>
                <path fill-rule="nonzero" fill="url(#linearGradient-20)" id="路径-52备份-2" d="M70.6300477,235.235362 L69.8007519,240.654984 C66.4234067,240.760606 62.750592,241.753363 58.7823078,243.633257 C56.2287309,245.271596 56.1150782,246.01393 56.0328715,247.424613 C55.9780671,248.365068 63.1929355,248.365068 77.6774767,247.424613 L77.6774767,233.249114 L70.6300477,235.235362 Z"></path>
                <path fill-rule="nonzero" fill="url(#linearGradient-21)" id="腿" d="M63.4798058,123.785314 C68.6750615,123.805568 72.8281177,124.432399 72.8281177,124.432399 C72.8281177,124.432399 71.3760846,143.047994 72.5330361,163.348918 C74.4320731,196.615503 79.3228235,238.234089 79.3228235,238.234089 L68.9920634,238.234089 C68.9920634,238.234089 52.013417,182.003971 52.1927293,145.31426 C46.0431551,176.221219 46.8317641,238.771761 46.8317641,238.771761 L35.9634303,237.694667 C35.9634303,237.694667 32.1302975,199.819086 31.1837007,169.374698 C30.4182428,144.709705 32.5013401,126.250105 32.5013401,126.250105 C37.8190756,125.533357 43.2048111,125.470098 48.5379757,126.061745 C48.5519929,126.063397 48.5660146,126.065057 48.5800408,126.066726 C50.9329551,125.295295 53.8831978,124.50135 56.8908161,124.137612 C58.9422461,123.889246 61.0228754,123.792804 62.9738901,123.785314 L63.4798058,123.785314 Z"></path>
                <g transform="translate(59.617349, 26.476940) scale(-1, 1) translate(-59.617349, -26.476940) translate(39.617349, 0.000000)" id="头">
                    <rect height="14.7259384" width="14.7259384" y="38.2279411" x="15.9030099" fill="url(#linearGradient-22)" id="矩形"></rect>
                    <ellipse ry="16.7340209" rx="14.7259384" cy="26.8488069" cx="25.2740616" fill="url(#linearGradient-23)" id="椭圆形"></ellipse>
                    <path fill="#483029" id="路径-53" d="M38.633377,16.179698 C34.5465891,21.8060201 29.9159912,25.1974521 24.7415832,26.3539941 C22.9496901,27.2264212 19.0354404,24.5262489 18.2108894,28.1619803 C17.9766837,30.5999513 19.3518129,33.9457585 21.2979246,33.3437386 C20.6077901,35.4939378 18.6707419,37.9181311 15.4867798,40.6163185 C12.2024395,41.904943 8.88101335,41.4257987 5.52250136,39.1788855 C0.957681042,34.8920992 -4.44906325,20.6753232 6.06580044,8.46502605 C6.39150047,8.27630082 18.4960557,-3.32957295 33.4895535,6.58602551 C37.2526076,9.03034944 38.9672155,12.2282403 38.633377,16.179698 Z"></path>
                    <circle r="7.43734262" cy="7.43734262" cx="7.87067988" fill="#483029" id="椭圆形"></circle>
                </g>
                <g transform="translate(0.000000, 45.644812)" id="上半身">
                    <path fill="url(#linearGradient-24)" id="胳膊" d="M47.4943933,1.16269478 C47.4943933,1.16269478 40.7649057,4.14935926 37.465851,9.66511959 C32.0297096,18.7573381 28.911665,34.2935028 28.911665,34.2935028 C28.911665,34.2935028 28.6605865,39.0199718 25.0783387,45.7277882 C21.1807829,53.0245285 19.770656,53.937346 19.770656,53.937346 C19.770656,53.937346 14.2031364,57.7156215 12.6908264,58.0421248 C10.8456914,58.44112 6.49852997,60.3876713 6.49852997,60.3876713 L9.44724254,69.4752506 C9.44724254,69.4752506 21.5807569,68.3516263 30.0940696,64.4910003 C36.4527785,61.6055345 38.9402073,53.9361861 38.9402073,53.9361861 L47.4943933,1.16269478 Z"></path>
                    <path fill="url(#linearGradient-25)" id="衣服" d="M50.7916593,7.13421412 L63.7101596,0 C63.7101596,0 64.9070727,1.1067661 65.3932869,1.63451783 C66.3496868,2.31558043 67.1981191,2.98015972 67.1981191,2.98015972 C67.1981191,2.98015972 70.4627421,4.85369773 72.269418,7.90617719 C74.4346737,11.564497 74.333517,24.0315557 74.333517,24.0315557 C74.333517,24.0315557 73.9659562,33.3514762 74.6283877,43.0890847 C75.7725088,59.9074319 76.2900544,79.8255612 76.2900544,79.8255612 C76.2900544,79.8255612 62.8670572,80.5482145 52.7450904,80.6198363 C42.0888519,80.6949385 31.8632971,80.0315143 31.8632971,80.0315143 L38.3504648,20.5133809 C38.3504648,20.5133809 39.3314227,10.3500227 43.0713244,4.38771248 C44.7150127,1.76292735 48.8987557,0.667910149 48.8987557,0.667910149 L50.7916593,7.13421412 Z"></path>
                    <path fill="url(#linearGradient-26)" id="胳膊-2" d="M67.5514778,3.21508422 C67.5514778,3.21508422 73.4956155,7.02380631 75.5159214,10.5448807 C78.5638975,15.8602736 79.9389901,39.864067 79.9389901,39.864067 C79.9389901,39.864067 80.4586643,43.9378194 78.4646339,47.1938636 C76.3333859,50.6734726 56.933193,62.4400607 56.933193,62.4400607 L41.0072256,71.2356426 L35.9914948,60.0942243 L63.1254894,40.1572241 C63.1254894,40.1572241 64.3721233,39.1745245 64.6027652,37.8116776 C64.81589,36.5387206 62.2408757,21.6860092 62.2408757,21.6860092 C62.2408757,21.6860092 61.1986079,15.7524057 62.8306181,11.424352 C64.2845379,7.57039496 67.5514778,3.21508422 67.5514778,3.21508422 Z"></path>
                    <path fill="#483029" id="iPad" d="M2.07254159,46.0209453 L32.4530396,46.0209453 C32.8442956,46.0211759 33.2194344,46.1757666 33.4959299,46.4507091 C33.7724253,46.7256516 33.9276283,47.0984239 33.9273959,47.4870206 L34.8120102,67.4240207 C34.8120102,67.8126411 34.6571414,68.1854579 34.3806292,68.4604175 C34.1041169,68.7353764 33.7289331,68.8900965 33.3376534,68.8900965 L4.13664039,68.8900965 C3.74536069,68.8900965 3.37017684,68.7353764 3.09366461,68.4604175 C2.81715237,68.1854579 2.66197427,67.8126411 2.6622841,67.4240207 L0.598185043,47.4870206 C0.598185043,47.0984239 0.753155943,46.7256516 1.0296514,46.4507091 C1.30614685,46.1757666 1.68128568,46.0211759 2.07254159,46.0209453 L2.07254159,46.0209453 Z"></path>
                    <path fill="#FEE0BC" id="手" d="M35.9914948,60.3876713 L27.5599285,60.6527015 C27.5599285,60.6527015 26.7979344,60.6184854 26.7716587,61.9793025 C26.783305,62.3212404 26.9860204,62.6281685 27.2971719,62.7749731 L29.3963049,63.5709337 C28.3653918,63.8457659 27.3106608,64.0233369 26.2461456,64.1012841 C24.8478345,64.1796035 23.4461908,64.1796035 22.0478796,64.1012841 C22.0478796,64.1012841 21.1340707,64.0082046 21.2596099,65.4275951 C21.3968272,66.9241167 21.7851231,69.141498 21.7851231,69.141498 C21.7851231,69.141498 21.9632136,70.6557078 23.8842561,70.9972897 C26.3541678,71.4377502 32.2807881,71.52764 32.2807881,71.52764 C33.7723166,71.5472061 35.2632918,71.4585301 36.7418107,71.2623196 C37.95633,71.073841 40.4145636,70.2013291 40.4145636,70.2013291 C40.4145636,70.2013291 39.3547787,67.5536361 38.3329476,65.0088822 C37.6686297,63.4130751 36.8859963,61.8684301 35.9914948,60.3876713 Z M2.48127403,60.5167068 L9.65744782,60.0919046 C9.65744782,60.0919046 10.2997417,59.9985351 10.4194418,61.2857005 C10.4427467,61.6002286 10.2959827,61.9033567 10.0340655,62.081661 L8.30863078,63.0040474 C9.20139076,63.1815884 10.1104494,63.2655592 11.0208624,63.2545793 C12.2140537,63.2164637 13.4036613,63.1040254 14.5826736,62.9179271 C14.5826736,62.9179271 15.3534262,62.7561252 15.3476529,64.111433 C15.3417482,65.5403925 15.1694966,67.672523 15.1694966,67.672523 C15.0904664,68.5970274 14.4309134,69.3705458 13.5258083,69.6002264 C11.4617096,70.2161175 6.4372201,70.7763345 6.4372201,70.7763345 C5.17417585,70.9141637 3.90193154,70.9496572 2.63308893,70.8824627 C2.16888567,70.8459267 1.54702846,70.9465451 1.10910085,70.6504884 C0.732184525,70.3464167 0.438072494,69.9533105 0.253682253,69.5071469 C-0.0941210224,67.7368613 -0.0841970439,65.9155718 0.282877427,64.1491287 C0.454830137,63.3267759 0.68806028,62.5182478 0.980642087,61.7302205 C1.18585627,61.0602717 1.77914639,60.5804967 2.48127403,60.5167068 L2.48127403,60.5167068 Z"></path>
                </g>
            </g>
        </g>
    </g>

    </g>
  </svg>