<svg t="1584772390832" class="icon" viewBox="0 0 1024 1024" version="1.1" xmlns="http://www.w3.org/2000/svg" p-id="2659" width="200" height="200"><path d="M769.758858 812.16457A394.535902 394.535902 0 1 0 257.965782 811.143742l-64.6156 64.560421a44.143877 44.143877 0 0 0 0 62.408406 44.143877 44.143877 0 0 0 62.435996 0l76.672397-76.672397a395.06011 395.06011 0 0 0 362.559181 0.800108l75.872288 75.872289A44.143877 44.143877 0 0 0 833.215681 938.057389a44.143877 44.143877 0 0 0 0-62.408406z m-73.196067-257.827833h-199.778634a27.589923 27.589923 0 0 1-27.589923-27.589923V263.042328A44.143877 44.143877 0 0 1 518.690556 219.22953a44.916395 44.916395 0 0 1 38.763842 44.971575v201.847878h137.949617A44.943985 44.943985 0 0 1 740.430769 504.895595a44.143877 44.143877 0 0 1-43.840388 49.441142zM832.994962 73.002937a119.602317 119.602317 0 0 0-95.626674 47.647797 452.033302 452.033302 0 0 1 167.857093 167.857093 119.850626 119.850626 0 0 0-72.230419-215.50489z"  p-id="2660"></path><path d="M196.495433 193.350182a450.102007 450.102007 0 0 1 91.653725-70.657793 119.823037 119.823037 0 1 0-165.787849 168.298531 449.27431 449.27431 0 0 1 74.134124-97.640738z"  p-id="2661"></path></svg>