<svg t="1583487421123" class="icon" viewBox="0 0 1024 1024" version="1.1" xmlns="http://www.w3.org/2000/svg" p-id="6655" width="200" height="200"><path d="M394.5 1024c-53.762 0-97.5-43.738-97.5-97.5s43.738-97.5 97.5-97.5 97.5 43.738 97.5 97.5S448.262 1024 394.5 1024zM775.5 1024c-53.762 0-97.5-43.738-97.5-97.5s43.738-97.5 97.5-97.5 97.5 43.738 97.5 97.5S829.262 1024 775.5 1024zM837.138 773.917c-1.526 0-2.89-0.059-4.067-0.145L401.904 773.772c-40.291 0-75.033-15.058-103.263-44.754-23.209-24.416-41.882-58.525-57.082-104.277-26.507-79.791-38.625-182.417-51.453-291.069-2.264-19.172-4.604-38.998-7.001-58.409-8.959-72.566-32.673-124.128-68.579-149.111-35.95-25.013-73.792-17.002-74.165-16.916-17.2 4.067-34.438-6.579-38.504-23.778-4.066-17.198 6.58-34.437 23.779-38.503 2.655-0.627 65.711-14.897 125.444 26.663 39.553 27.52 67.621 71.847 83.81 132.179 0.234-0.005 0.461-0.01 0.7-0.006l686.876 1.434c37.604 0 60.012 15.34 72.175 28.208 27.451 29.042 26.08 68.284 25.833 72.663l-0.076 1.353-0.189 1.341c-0.189 1.346-19.52 136.427-56.264 292.828-16.893 71.896-41.622 121.935-73.504 148.723C868.513 770.763 848.359 773.917 837.138 773.917z" p-id="6656"></path></svg>