<?xml version="1.0" standalone="no"?><!DOCTYPE svg PUBLIC "-//W3C//DTD SVG 1.1//EN" "http://www.w3.org/Graphics/SVG/1.1/DTD/svg11.dtd"><svg t="1714376174480" class="icon" viewBox="0 0 1024 1024" version="1.1" xmlns="http://www.w3.org/2000/svg" p-id="5189" xmlns:xlink="http://www.w3.org/1999/xlink" width="200" height="200"><path d="M799.6 611H597.8c-8.8 0-15.9-7.1-15.9-15.9v-49c0-6.5 4.1-12.2 10.2-14.6 77.6-31.3 132.5-107 132.8-195.7 0.3-113.9-94.9-210.8-208.7-212.5-118.4-1.7-214.9 93.8-214.9 211.8 0 87.9 53.6 163 129.8 195.1 6 2.5 10 8.1 10 14.6v50.3c0 8.8-7.1 15.9-15.9 15.9H223.3c-35.4 0-64 28.7-64 64v61c0 8.8 7.1 15.9 15.9 15.9h672.5c8.8 0 15.9-7.1 15.9-15.9v-61c0.1-35.4-28.6-64-64-64zM847.8 792.8H175.2c-8.8 0-15.9 7.1-15.9 15.9v38.7c0 8.8 7.1 15.9 15.9 15.9h672.6c8.8 0 15.9-7.1 15.9-15.9v-38.7c0-8.8-7.1-15.9-15.9-15.9z" fill="" p-id="5190"></path></svg>