<?xml version="1.0" standalone="no"?><!DOCTYPE svg PUBLIC "-//W3C//DTD SVG 1.1//EN" "http://www.w3.org/Graphics/SVG/1.1/DTD/svg11.dtd"><svg t="1626837084378" class="icon" viewBox="0 0 1024 1024" version="1.1" xmlns="http://www.w3.org/2000/svg" p-id="6168" xmlns:xlink="http://www.w3.org/1999/xlink" width="128" height="128"><defs><style type="text/css"></style></defs><path d="M1024 256H0V128a128 128 0 0 1 128-128h768a128 128 0 0 1 128 128v128z m0 64v576a128 128 0 0 1-128 128H128a128 128 0 0 1-128-128V320h1024z m-128-128a64 64 0 1 0 0-128 64 64 0 0 0 0 128z m-192 0a64 64 0 1 0 0-128 64 64 0 0 0 0 128zM512 192a64 64 0 1 0 0-128 64 64 0 0 0 0 128z m-165.376 512.064l-62.72-64.256 62.72-64.192a39.808 39.808 0 0 0 0-55.424 37.632 37.632 0 0 0-54.144 0L203.2 611.648a39.552 39.552 0 0 0-11.2 28.16c-0.128 10.24 3.584 20.48 11.2 28.224l89.28 91.456a37.696 37.696 0 0 0 54.144 0 39.808 39.808 0 0 0 0-55.424z m258.432-202.112a39.488 39.488 0 0 0-20.928-51.008 37.952 37.952 0 0 0-49.92 21.44l-147.392 369.664a39.488 39.488 0 0 0 20.992 51.008c4.736 1.984 9.6 2.944 14.464 2.944 15.04 0 29.376-9.216 35.392-24.32l147.392-369.728z m215.744 166.08a39.552 39.552 0 0 0 11.2-28.16 39.552 39.552 0 0 0-11.2-28.224L731.52 520.192a37.632 37.632 0 0 0-54.144 0 39.808 39.808 0 0 0 0 55.424l62.72 64.192-62.72 64.256a39.808 39.808 0 0 0 0 55.36 37.76 37.76 0 0 0 54.144 0l89.28-91.392z" p-id="6169"></path></svg>