<svg t="1583487344615" class="icon" viewBox="0 0 1212 1024" version="1.1" xmlns="http://www.w3.org/2000/svg" p-id="5774" width="200" height="200"><path d="M165.267915 826.339574l155.186572 180.417474c19.83215 23.082419 52.555197 22.862062 72.552615 0L550.893049 826.339574l605.817086 0C1187.229611 826.339574 1211.964708 801.604476 1211.964708 770.864644L1211.964708 55.530019C1211.964708 24.845277 1187.780504 0 1156.765225 0L55.199484 0C24.735098 0 0 24.735098 0 55.530019l0 715.334624C0 801.494297 24.404562 826.339574 55.034216 826.339574L165.267915 826.339574zM220.35722 232.587045C220.35722 225.86615 225.811061 220.35722 232.476867 220.35722l691.92167 0C931.174521 220.35722 936.518184 225.811061 936.518184 232.587045l0 30.629654C936.518184 269.937594 931.064343 275.446525 924.398537 275.446525L232.476867 275.446525C225.700882 275.446525 220.35722 269.992683 220.35722 263.216699L220.35722 232.587045zM220.35722 397.85496C220.35722 391.134065 225.811061 385.625134 232.476867 385.625134l691.92167 0C931.174521 385.625134 936.518184 391.078976 936.518184 397.85496l0 30.629654C936.518184 435.205509 931.064343 440.714439 924.398537 440.714439L232.476867 440.714439C225.700882 440.714439 220.35722 435.260598 220.35722 428.484614L220.35722 397.85496zM220.35722 563.122875C220.35722 556.40198 225.535614 550.893049 231.870884 550.893049l472.776415 0C710.92748 550.893049 716.160964 556.34689 716.160964 563.122875l0 30.629654C716.160964 600.473424 710.982569 605.982354 704.647299 605.982354L231.870884 605.982354C225.590704 605.982354 220.35722 600.528513 220.35722 593.752529L220.35722 563.122875z" p-id="5775"></path></svg>