<?xml version="1.0" standalone="no"?><!DOCTYPE svg PUBLIC "-//W3C//DTD SVG 1.1//EN" "http://www.w3.org/Graphics/SVG/1.1/DTD/svg11.dtd"><svg t="1626837118671" class="icon" viewBox="0 0 1024 1024" version="1.1" xmlns="http://www.w3.org/2000/svg" p-id="8159" xmlns:xlink="http://www.w3.org/1999/xlink" width="128" height="128"><defs><style type="text/css"></style></defs><path d="M514.454588 7.529412C234.209882 7.529412 6.219294 235.52 6.219294 515.764706S234.224941 1024 514.454588 1024s508.235294-227.990588 508.235294-508.235294S794.699294 7.529412 514.454588 7.529412zM249.750588 487.860706c0.888471-0.662588 89.268706-67.734588 135.710118-105.848471 12.363294-10.149647 32.662588-29.138824 54.302118-50.763294 40.658824-40.658824 77.402353-87.732706 77.763764-88.199529a14.531765 14.531765 0 0 1 22.91953 17.829647l-3.237647 4.096c24.636235 29.545412 29.605647 34.56 47.73647 52.555294l12.393412 12.318118c4.141176 4.141176 8.749176 8.839529 13.583059 13.733647 12.559059 12.769882 26.804706 27.256471 37.632 37.074823 49.227294 44.604235 119.401412 85.850353 120.094117 86.256941a14.531765 14.531765 0 0 1-14.652235 25.057883c-2.981647-1.746824-73.517176-43.203765-124.943059-89.810824-11.444706-10.375529-25.991529-25.163294-38.821647-38.234353-4.773647-4.848941-9.336471-9.487059-13.417412-13.568l-12.303058-12.242823c-17.618824-17.483294-23.386353-23.235765-46.034824-50.296471-14.848 17.648941-35.719529 41.472-58.172235 63.924706-10.691765 10.691765-37.571765 37.225412-56.410353 52.675765-46.863059 38.460235-135.68 105.863529-136.568471 106.541176a14.531765 14.531765 0 0 1-17.573647-23.100235zM769.837176 752.941176h-508.235294c-8.026353 0-14.516706-7.032471-14.516706-15.058823s6.490353-15.058824 14.516706-15.058824H391.529412V550.912c0-8.026353 7.032471-14.516706 15.058823-14.516706s15.058824 6.490353 15.058824 14.516706V722.823529h105.411765V420.231529c0-8.026353 7.032471-14.516706 15.058823-14.516705s15.058824 6.490353 15.058824 14.516705V527.058824h125.530353c8.026353 0 14.516706 7.032471 14.516705 15.058823s-6.490353 15.058824-14.516705 15.058824H557.176471v165.647058h212.660705c8.026353 0 14.516706 7.032471 14.516706 15.058824s-6.490353 15.058824-14.516706 15.058823z" p-id="8160"></path></svg>