<?xml version="1.0" standalone="no"?><!DOCTYPE svg PUBLIC "-//W3C//DTD SVG 1.1//EN" "http://www.w3.org/Graphics/SVG/1.1/DTD/svg11.dtd"><svg t="1626837109592" class="icon" viewBox="0 0 1024 1024" version="1.1" xmlns="http://www.w3.org/2000/svg" p-id="7269" xmlns:xlink="http://www.w3.org/1999/xlink" width="128" height="128"><defs><style type="text/css"></style></defs><path d="M927.744 329.728a98.304 98.304 0 0 0-96.768-87.552H193.024a98.304 98.304 0 0 0-96.768 87.552zM94.72 355.328v-12.8V768a99.328 99.328 0 0 0 98.304 102.4h637.952a99.328 99.328 0 0 0 98.304-102.4V355.328z m625.152 179.712h30.208a565.76 565.76 0 0 1-20.992 109.056h-27.136a655.872 655.872 0 0 0 17.92-108.544z m-159.744 0a588.288 588.288 0 0 0 17.92 109.056h-27.136a565.76 565.76 0 0 1-20.992-109.056z m-68.096 178.176H272.896v-18.944H307.2v-102.4h31.232v102.4h38.912v-133.632H409.6v46.08h61.44v22.016H409.6v66.048h82.432z m9.216-122.88a256 256 0 0 1-117.248-67.072 256 256 0 0 1-117.248 67.072v-19.968A195.584 195.584 0 0 0 365.056 491.52h37.888a195.584 195.584 0 0 0 97.792 78.848z m256 121.856h-232.448v-19.968h67.072V496.64h32.256v196.096h32.256V496.64h31.232v196.096h68.096z" fill="" p-id="7270"></path></svg>