<?xml version="1.0" standalone="no"?><!DOCTYPE svg PUBLIC "-//W3C//DTD SVG 1.1//EN" "http://www.w3.org/Graphics/SVG/1.1/DTD/svg11.dtd"><svg t="1626829545775" class="icon" viewBox="0 0 1024 1024" version="1.1" xmlns="http://www.w3.org/2000/svg" p-id="2790" xmlns:xlink="http://www.w3.org/1999/xlink" width="128" height="128"><defs><style type="text/css"></style></defs><path d="M395.670588 120.32C182.031059 120.32 8.222118 294.128941 8.222118 507.768471s173.808941 387.448471 387.44847 387.44847 387.448471-173.808941 387.448471-387.44847S609.295059 120.32 395.670588 120.32zM579.162353 667.602824H206.064941c-7.936 0-14.351059-7.122824-14.351059-15.058824s6.415059-15.058824 14.351059-15.058824h100.126118v-96.105411c0-7.936 7.122824-14.351059 15.058823-14.351059s15.058824 6.415059 15.058824 14.351059v96.105411h75.294118V440.937412c0-7.936 7.122824-14.351059 15.058823-14.351059s15.058824 6.415059 15.058824 14.351059v76.077176h80.037647c7.936 0 14.351059 7.122824 14.351058 15.058824s-6.415059 15.058824-14.351058 15.058823h-80.037647v90.352941h137.426823c7.936 0 14.351059 7.122824 14.351059 15.058824s-6.415059 15.058824-14.336 15.058824z m15.435294-180.028236a14.366118 14.366118 0 0 1-19.636706 5.150118c-2.273882-1.325176-55.853176-32.828235-94.976-68.291765-8.643765-7.845647-19.606588-18.989176-29.274353-28.807529l-19.57647-19.651765c-12.709647-12.619294-17.332706-17.242353-32.451765-35.207529a768.798118 768.798118 0 0 1-41.577412 45.462588c-8.131765 8.131765-28.566588 28.310588-42.887529 40.041412-35.448471 29.093647-102.625882 80.052706-103.288471 80.579764a14.366118 14.366118 0 1 1-17.347765-22.859294c0.677647-0.512 67.403294-51.154824 102.445177-79.902117 9.246118-7.574588 24.500706-21.835294 40.794353-38.128942 30.569412-30.569412 58.217412-65.987765 58.48847-66.334117a14.336 14.336 0 1 1 22.648471 17.618823 38.4 38.4 0 0 1-0.752941 0.963765c17.061647 20.434824 20.961882 24.32 34.153412 37.406118l19.817411 19.877647c9.396706 9.562353 20.058353 20.389647 28.099765 27.678117 36.864 33.415529 89.675294 64.481882 90.187294 64.783059a14.351059 14.351059 0 0 1 5.135059 19.621647zM894.855529 170.661647H708.306824c-7.936 0-14.351059-7.122824-14.351059-15.058823s6.415059-15.058824 14.351059-15.058824h186.548705c7.936 0 14.351059 7.122824 14.351059 15.058824s-6.415059 15.058824-14.351059 15.058823zM1009.648941 517.014588H851.802353c-7.936 0-14.351059-7.122824-14.351059-15.058823s6.415059-15.058824 14.351059-15.058824h157.846588c7.936 0 14.351059 7.122824 14.351059 15.058824s-6.415059 15.058824-14.351059 15.058823zM980.946824 336.308706H823.100235c-7.936 0-14.351059-7.122824-14.351059-15.058824s6.415059-15.058824 14.351059-15.058823h157.846589c7.936 0 14.351059 7.122824 14.351058 15.058823s-6.415059 15.058824-14.351058 15.058824zM894.855529 863.367529H708.306824c-7.936 0-14.351059-7.122824-14.351059-15.058823s6.415059-15.058824 14.351059-15.058824h186.548705c7.936 0 14.351059 7.122824 14.351059 15.058824s-6.415059 15.058824-14.351059 15.058823zM980.946824 682.661647H823.100235c-7.936 0-14.351059-7.122824-14.351059-15.058823s6.415059-15.058824 14.351059-15.058824h157.846589c7.936 0 14.351059 7.122824 14.351058 15.058824s-6.415059 15.058824-14.351058 15.058823z" p-id="2791"></path></svg>