<?xml version="1.0" standalone="no"?><!DOCTYPE svg PUBLIC "-//W3C//DTD SVG 1.1//EN" "http://www.w3.org/Graphics/SVG/1.1/DTD/svg11.dtd"><svg t="1626837053197" class="icon" viewBox="0 0 1024 1024" version="1.1" xmlns="http://www.w3.org/2000/svg" p-id="4345" xmlns:xlink="http://www.w3.org/1999/xlink" width="128" height="128"><defs><style type="text/css"></style></defs><path d="M969.317817 167.621412c0-37.337471 0-74.145332-1.853633-108.040341a538.348073 538.348073 0 0 1-114.130851 18.536333c-148.555469 9.003362-250.505301-38.661495-344.246185-78.117404C405.018878 60.375485 213.035428 105.921903 55.741402 59.581071v377.081975c0 42.368761-3.442462 84.737523 0 125.78226 11.651409 128.959917 94.535299 224.024825 177.154383 294.727696a1121.183346 1121.183346 0 0 0 280.957848 166.826998 1319.52211 1319.52211 0 0 0 167.886217-89.239204 1338.058443 1338.058443 0 0 0 132.402379-101.420222c67.260409-61.169899 135.050427-139.022498 153.05715-240.97233a189.335402 189.335402 0 0 0 1.588829-24.097233z m-193.837083 572.243082h-556.089992v-55.873804h79.441428v-235.41143h59.845875v235.41143h110.423584V336.037238h64.347556v144.053789H716.164469v54.54978h-182.715284v149.349883h242.561159z m-8.473752-308.232738A796.797517 796.797517 0 0 1 496.111715 238.324282a806.595294 806.595294 0 0 1-266.393587 192.51306 251.829325 251.829325 0 0 0-42.103957-52.960952c118.897336-46.605637 238.324282-132.402379 302.407034-230.115335l55.344195 26.480476c-4.501681 7.149728-9.797776 13.769847-15.093872 20.919576a699.878976 699.878976 0 0 0 276.191363 182.185673 150.409103 150.409103 0 0 0-39.455909 54.020171z" p-id="4346"></path></svg>