<svg t="1568002125974" class="icon" viewBox="0 0 1024 1024" version="1.1" xmlns="http://www.w3.org/2000/svg" p-id="3581" width="200" height="200"><path d="M458.2 896.1c1.8-10.8 8-15.9 6.4-20.1-6.7-17.7-9.3-49.7-8-55 11.3-46.3 26.4-61.1 31-66 15.6-16.6 25.1-20 34.3-23 24.5-7.9 44.9-5.9 53.4-9.2 12.8-5 22.7-10.2 33.7-16.5-39.7-33.1-65-82.9-65-138.6 0-99.5 80.7-180.2 180.2-180.2 15.4 0 30.4 1.9 44.7 5.6V96.2c0-17.6-14.4-32-32-32H131.6c-17.6 0-32 14.4-32 32V899c0 17.6 14.4 32 32 32h324.7s-0.2-21.7 1.9-34.9zM225 109h196v179.1c-0.7 12.2-14.4 19-24.9 12.8l-76-44.9-69.9 44.5c-10.4 6.6-24.4-0.1-25.1-12.4V109z m-38.7 321.3c0-17.6 14.4-32 32-32h267.5c17.6 0 32 14.4 32 32s-14.4 32-32 32H218.3c-17.6 0-32-14.4-32-32zM377 647c0 17.6-14.4 32-32 32H218.3c-17.6 0-32-14.4-32-32s14.4-32 32-32H345c17.6 0 32 14.4 32 32z m-158.7-76.3c-17.6 0-32-14.4-32-32s14.4-32 32-32h230.6c17.6 0 32 14.4 32 32s-14.4 32-32 32H218.3z" p-id="3582"></path><path d="M720.6 562.6m-120.9 0a120.9 120.9 0 1 0 241.8 0 120.9 120.9 0 1 0-241.8 0Z" p-id="3583"></path><path d="M917 931H524c-6.6 0-12-5.4-12-12v-2c0-6.6 5.4-12 12-12h393c6.6 0 12 5.4 12 12v2c0 6.6-5.4 12-12 12zM659 683.5c3 10.2 4.3 32.8 0 42.5-3.9 8.9-17.6 24-26 29-12.5 7.4-23.2 13.3-37.5 18.8-8.5 3.3-28.7 4.2-54.2 7.9-7.8 1.1-19.5 6.4-28.2 22.8-3.2 6-3.5 40-1.1 46.6 1.9 5.2 14 17 14 17h195v-224l-83.5 6.5c0-0.2 18.7 23.4 21.5 32.9z m270 120.9c-8.7-16.3-20.4-21.6-28.2-22.8-25.5-3.7-45.6-4.6-54.2-7.9-14.3-5.5-25-11.4-37.5-18.8-8.4-5-22.1-20.1-26-29-4.3-9.7-3-32.3 0-42.5 2.8-9.4 21.5-33 21.5-33L721 644v224h195s12.1-11.8 14-17c2.5-6.6 2.1-40.6-1-46.6z" p-id="3584"></path></svg>
