<?xml version="1.0" standalone="no"?><!DOCTYPE svg PUBLIC "-//W3C//DTD SVG 1.1//EN" "http://www.w3.org/Graphics/SVG/1.1/DTD/svg11.dtd"><svg t="1626837076262" class="icon" viewBox="0 0 1024 1024" version="1.1" xmlns="http://www.w3.org/2000/svg" p-id="5320" xmlns:xlink="http://www.w3.org/1999/xlink" width="128" height="128"><defs><style type="text/css"></style></defs><path d="M500.32073 445.92413c-23.166552 0-46.269108-4.095744-64.827948-12.351228L74.107368 272.494969c-27.83826-8.191488-41.725392-24.766452-41.725392-45.43716 0-20.47872 13.887132-37.11768 37.11768-49.468908l366.057122-165.109681C453.987626 4.15974 481.76189 0 504.928442 0s46.333104 4.15974 64.827948 12.47922l361.385414 156.790201c23.166552 12.47922 37.11768 28.926192 37.11768 49.5969s-13.951128 37.11768-37.11768 49.532904l-366.057122 165.109681c-13.823136 8.31948-41.661396 12.47922-64.827948 12.47922v-0.063996zM426.213362 1023.936004c-13.887132 0-23.166552-4.095744-37.053684-8.31948L69.563652 867.145803C32.445972 850.506843 0 813.325167 0 784.526967V375.720517c0-28.926192 23.166552-49.532904 55.67652-49.532904 9.215424 0 23.03856 4.095744 32.381976 8.191488l324.267734 148.662709c37.11768 16.446972 69.563652 53.628648 69.563652 82.55484v404.64671c0 32.95794-27.83826 53.628648-55.67652 53.628648z m171.381288 0c-32.381976 0-55.548528-20.670708-55.548528-49.532904V569.820386c0-33.021936 27.83826-66.043872 69.499656-82.618836l324.267734-152.758453c9.343416-4.095744 23.166552-8.191488 32.445972-8.191488 32.445972 0 55.67652 20.606712 55.67652 49.532904v404.582714c0 32.95794-27.83826 65.91588-69.563652 82.55484L630.104618 1015.616524a73.147428 73.147428 0 0 1-32.509968 8.255484z" p-id="5321"></path></svg>