<svg t="1564712813082" class="icon" viewBox="0 0 1024 1024" version="1.1" xmlns="http://www.w3.org/2000/svg" p-id="2177" width="128" height="128"><path d="M234.554572 737.573525c0-67.855434 34.850739-129.675408 93.229335-165.373445l32.172747-19.674085L225.277278 552.525995c-81.256652 0-147.369396 66.109674-147.369396 147.377582s66.110697 147.378605 147.369396 147.378605l42.479487 0-8.791224-15.776312C242.992755 802.834878 234.554572 770.369466 234.554572 737.573525z" p-id="2178"></path><path d="M798.125111 558.578852 449.653535 558.578852c-98.702999 0-178.995697 80.31214-178.995697 179.01514 0 98.680487 80.292698 178.972161 178.995697 178.972161l348.471576 0c98.701976 0 179.004907-80.293721 179.004907-178.972161C977.130018 638.892015 896.827087 558.578852 798.125111 558.578852z" p-id="2179"></path><path d="M366.789269 508.24242c32.850176 0 64.983014-9.328459 92.948949-26.970258l12.58462-7.940856-11.610432-9.307993C406.365636 420.445818 375.195729 355.785146 375.195729 286.584064c0-38.186717 9.742898-76.021417 28.194132-109.461017l7.215332-13.081946-14.729469-2.508123c-10.354835-1.762133-19.872606-2.612501-29.087479-2.612501-96.306416 0-174.650739 78.344323-174.650739 174.661995C192.137507 429.900144 270.481829 508.24242 366.789269 508.24242z" p-id="2180"></path><path d="M623.867322 499.184113c117.225865 0 212.589816-95.363951 212.589816-212.600049 0-117.214608-95.363951-212.57856-212.589816-212.57856-117.204375 0-212.558094 95.363951-212.558094 212.57856C411.309228 403.819139 506.662947 499.184113 623.867322 499.184113z" p-id="2181"></path></svg>
