<?xml version="1.0" standalone="no"?><!DOCTYPE svg PUBLIC "-//W3C//DTD SVG 1.1//EN" "http://www.w3.org/Graphics/SVG/1.1/DTD/svg11.dtd"><svg t="1722323685909" class="icon" viewBox="0 0 1024 1024" version="1.1" xmlns="http://www.w3.org/2000/svg" p-id="7114" xmlns:xlink="http://www.w3.org/1999/xlink" width="200" height="200"><path d="M997 307.8C996 351.6 506.8 936 506.8 936s-301.4-341-490-628.1H997z" fill="#FFB600" p-id="7115"></path><path d="M793.6 53.8H220.2l-203.4 254H997z" fill="#FFD401" p-id="7116"></path><path d="M311.9 307.8l195-254 183.5 254z" fill="#FFFFFD" opacity=".2" p-id="7117"></path><path d="M311.9 307.8L506.8 936l183.6-628.2z" fill="#FFFFFF" opacity=".2" p-id="7118"></path><path d="M220.2 53.8l91.7 254H16.8z" fill="#FAFF73" opacity=".2" p-id="7119"></path><path d="M793.6 53.8l-103.2 254H997z" fill="#FFFFFD" opacity=".2" p-id="7120"></path><path d="M713.2 318c-7.8 2.6-13.3 7.7-16.5 15.2-5.5 7.9-7.3 17-8.7 26.2-1.5 9-2.4 18.1-3.7 28.4-1.6-15.7-3-30.2-7.1-44.2 0.7-1.3 0-2-1.1-2.5l-1.2-3c-0.2-0.3-0.3-0.7-0.5-1-0.7-1.5-1.5-3.1-2.2-4.6-0.4-3.5-2.5-5.8-5.6-7.4-1.6-3.4-4.4-5.4-8.1-6.2-0.4-0.3-0.9-0.5-1.3-0.8-3.3-3.5-7.5-4.8-12.1-5-0.3-0.1-0.6-0.2-1-0.2-2.2-1.5-4.5-2.3-7.2-1.7-0.7-0.1-1.4-0.2-2-0.3-0.2-0.2-0.5-0.2-0.7-0.1h-0.2c-2.6-1.4-5.3-2.2-8.3-1.6-0.6-0.1-1.3-0.1-1.9-0.2-1.3-1.4-3.2-0.5-4.6-1.2-2.6-1.2-0.3-1.7 0.5-2.3 0.6-0.1 1.3-0.2 1.9-0.2 1.1 0.6 2.2 0.5 3.1-0.4 8.4-1.3 16.9-2.7 25-5.4 1.7-0.6 3.2-1.7 4.8-2.6 7.2-3.2 13.9-6.9 16.2-15.4 5.4-4.8 6.6-11.6 8-18 2.7-11.6 4.1-23.6 5.4-35.5 1.9 10.3 2.4 20.8 4.6 31 1.9 8.2 4 16.4 8.6 23.6 5 8 12.4 13 21.2 16.3 11.5 4.3 23.7 5.4 35.7 7 2.5 0.3 5 0.9 8.6 1.5-13.5 1.2-25.8 2.6-37.7 5.7-4.1 1-8.5 2-11.9 4.9z" fill="#FBFAF4" p-id="7121"></path></svg>