<svg t="1563877127104" class="icon" viewBox="0 0 1024 1024" version="1.1" xmlns="http://www.w3.org/2000/svg" p-id="3772" width="128" height="128"><path d="M977.732267 373.640533 588.4416 70.5536c-33.501867-26.146133-86.084267-26.112-119.569067 0L79.598933 373.640533c-13.312 10.359467-15.581867 29.422933-5.0688 42.496 10.496 13.1072 29.3888 15.342933 42.683733 5.000533L136.533333 409.6l0 494.933333c0 51.950933 48.384 85.333333 97.262933 85.333333l614.314667 0C896.392533 989.866667 921.6 958.8224 921.6 904.533333L921.6 409.6l17.5616 11.537067c5.666133 4.386133 12.5952 6.5024 19.268267 6.5024 9.0624 0 18.158933-3.925333 24.200533-11.502933C993.160533 403.0464 991.061333 384 977.732267 373.640533zM631.466667 921.6 426.666667 921.6 426.666667 665.6c0-35.208533 39.0656-85.333333 102.4-85.333333s102.4 50.141867 102.4 85.333333L631.466667 921.6z" p-id="3773"></path></svg>
