<svg t="1564886093588" class="icon" viewBox="0 0 1024 1024" version="1.1" xmlns="http://www.w3.org/2000/svg" p-id="2309" width="128" height="128"><path d="M802.151864 143.681903c31.235972 22.212313 59.004583 47.37867 83.296916 75.486189 24.297287 28.115447 45.120277 58.481358 62.471944 91.10467 17.356621 32.624303 30.543292 67.159173 39.568933 103.600644 9.023659 36.441472 13.533507 73.402205 13.533507 110.886164 0 64.556918-12.320575 125.116314-36.960733 181.691069-24.64214 56.569801-57.962096 105.853091-99.955902 147.845906-41.993807 41.998761-91.277096 75.313762-147.850861 99.955902-56.56881 24.64115-117.134151 36.965688-181.684132 36.965688-63.860275 0-124.078781-12.324539-180.648582-36.965688C297.348198 929.610306 247.89149 896.295305 205.55283 854.296544c-42.343615-41.992816-75.661588-91.276106-99.955902-147.845906C81.300632 649.875883 69.155456 589.315496 69.155456 524.759569c0-36.787316 4.33643-72.883934 13.015236-108.282918 8.678806-35.398984 20.996408-69.064784 36.960733-100.99839 15.968289-31.926669 35.749783-61.774309 59.350427-89.536975 23.599653-27.768611 49.974978-52.757587 79.131921-74.968909 15.272637-11.107643 31.755233-15.271646 49.456708-12.496965 17.696519 2.781618 32.100087 11.454478 43.20872 26.030472 11.108634 14.58194 15.271646 30.890128 12.496965 48.938437-2.781618 18.047318-11.454478 32.622321-26.029481 43.732937-43.732937 31.926669-77.225319 71.144804-100.480119 117.652422-23.247863 46.507618-34.873777 96.483587-34.873777 149.930881 0 45.810975 8.67286 89.026632 26.030472 129.631116 17.351666 40.605475 41.123746 76.003468 71.316239 106.197944 30.201412 30.19943 65.599405 54.144928 106.20488 71.846402 40.606466 17.696519 83.813205 26.548743 129.631116 26.548743 45.810975 0 89.018704-8.852223 129.62517-26.548743 40.606466-17.701474 76.009414-41.646971 106.202899-71.846402 30.195466-30.194475 54.139973-65.592469 71.841447-106.197944 17.702465-40.606466 26.548743-83.820141 26.548743-129.631116 0-54.138982-12.490028-105.333829-37.478013-153.576613-24.99393-48.240803-60.048061-87.977208-105.161402-119.21318-15.272637-10.411991-24.468723-24.643131-27.592221-42.69045-3.12548-18.048309 0.518271-34.708287 10.930261-49.981915 10.411991-14.575003 24.64214-23.427227 42.69045-26.547752C770.229159 129.630125 786.880218 133.269912 802.151864 143.681903L802.151864 143.681903zM534.570544 527.888022c-18.0493 0-33.494364-6.421405-46.336182-19.264214-12.841818-12.840827-19.263223-28.286882-19.263223-46.335191L468.971138 66.634956c0-18.048309 6.420414-33.6658 19.263223-46.853462 12.841818-13.188654 28.286882-19.781494 46.336182-19.781494 18.738016 0 34.529915 6.59284 47.371733 19.781494 12.841818 13.187663 19.262232 28.805153 19.262232 46.853462l0 395.65366c0 18.047318-6.420414 33.493373-19.262232 46.335191C569.100458 521.466617 553.308559 527.888022 534.570544 527.888022L534.570544 527.888022z" p-id="2310"></path></svg>