<?xml version="1.0" standalone="no"?><!DOCTYPE svg PUBLIC "-//W3C//DTD SVG 1.1//EN" "http://www.w3.org/Graphics/SVG/1.1/DTD/svg11.dtd"><svg t="1710125526409" class="icon" viewBox="0 0 1024 1024" version="1.1" xmlns="http://www.w3.org/2000/svg" p-id="4166" xmlns:xlink="http://www.w3.org/1999/xlink" width="200" height="200"><path d="M64 764.672V259.328C64 186.88 122.368 128 194.368 128h203.968c33.792 0 64.832 19.584 79.552 50.56l40.96 86.272c14.656 30.976 45.696 50.56 79.488 50.56h273.28c48.768 0 88.384 39.872 88.384 89.088v360.192A130.88 130.88 0 0 1 829.632 896H194.368A130.88 130.88 0 0 1 64 764.672z m851.264-505.664c0-47.424-38.528-85.952-85.312-85.952H552.96a17.92 17.92 0 0 0-16 25.792l29.312 61.504a18.112 18.112 0 0 0 16 10.368h321.728a11.968 11.968 0 0 0 11.264-11.712zM230.4 448a38.4 38.4 0 0 0 0 76.8h51.2a38.4 38.4 0 0 0 0-76.8h-51.2z m192 0a38.4 38.4 0 0 0 0 76.8h403.2a38.4 38.4 0 1 0 0-76.8H422.4z m-192 184a38.4 38.4 0 0 0 0 76.8h51.2a38.4 38.4 0 0 0 0-76.8h-51.2z m192 0a38.4 38.4 0 0 0 0 76.8h403.2a38.4 38.4 0 1 0 0-76.8H422.4z" p-id="4167"></path></svg>