<?xml version="1.0" standalone="no"?><!DOCTYPE svg PUBLIC "-//W3C//DTD SVG 1.1//EN" "http://www.w3.org/Graphics/SVG/1.1/DTD/svg11.dtd"><svg t="1711692368519" class="icon" viewBox="0 0 1024 1024" version="1.1" xmlns="http://www.w3.org/2000/svg" p-id="1506" xmlns:xlink="http://www.w3.org/1999/xlink" width="200" height="200"><path d="M962.048 301.568c29.184-29.184 29.184-75.776 0-104.96l-141.824-141.824c-28.672-29.184-75.776-29.184-104.96 0l-144.384 144.384 246.784 247.296 144.384-144.896z" fill="#AEC9FF" p-id="1507"></path><path d="M137.216 632.832c-14.848 14.848-26.112 33.792-32.768 53.76L43.52 909.824c-8.192 26.624 6.656 54.784 33.28 63.488 9.728 3.072 20.48 3.072 30.208 0l223.232-60.928c20.48-6.656 38.912-17.408 54.272-32.768L440.32 823.808l-246.784-247.296-56.32 56.32zM312.832 71.168c-31.232-31.744-82.944-31.744-114.688 0l-0.512 0.512-133.632 133.632c-31.744 31.744-31.744 82.944 0 114.688L127.488 384l117.76-118.272c15.872-15.872 41.472-15.872 57.344 0 15.872 15.872 15.872 41.472 0 57.344L184.832 440.32l57.344 57.344L312.32 427.52c15.36-15.872 40.96-16.384 56.832-0.512l0.512 0.512c15.872 15.872 15.872 41.472 0 57.344l-69.632 70.144 57.344 57.344 117.248-117.76c15.872-15.872 41.472-15.872 57.344 0s15.872 41.472 0 57.344l-118.784 116.736L471.04 727.04l0.512-0.512 69.12-69.632c15.872-15.872 41.472-15.872 57.344 0s15.872 41.472 0 57.344L528.384 783.36l-0.512 0.512 57.344 57.344 117.248-117.248c15.872-15.872 41.472-15.872 57.344 0 15.872 15.872 15.872 41.472 0 57.344l-117.76 116.736 68.608 68.608c31.744 31.744 82.944 31.744 114.688 0.512l0.512-0.512 134.144-134.144c31.744-31.744 31.744-82.944 0-114.688L312.832 71.168z" p-id="1508"></path></svg>