<svg t="1583487317756" class="icon" viewBox="0 0 1024 1024" version="1.1" xmlns="http://www.w3.org/2000/svg" p-id="4937" width="200" height="200"><path d="M0 170.24A170.197333 170.197333 0 0 1 170.24 0h683.52A170.197333 170.197333 0 0 1 1024 170.24v683.52A170.197333 170.197333 0 0 1 853.76 1024H170.24A170.197333 170.197333 0 0 1 0 853.76V170.24z m760.32 720.64c64.853333 0 98.133333-32.426667 98.133333-95.573333V162.986667H465.066667v59.733333h331.093333v556.373333c0 37.546667-16.213333 56.32-48.64 56.32l-93.866667-1.706666 15.36 57.173333h91.306667zM165.546667 255.146667v641.706666h62.293333V255.146667H165.546667z m191.146666 122.88v320.853333h307.2V378.026667h-307.2zM292.693333 106.666667l-57.173333 24.746666c39.253333 46.08 75.946667 98.133333 108.373333 157.866667l54.613334-28.16C367.786667 204.8 331.946667 153.6 292.693333 106.666667zM601.6 640H418.986667v-203.093333h182.613333V640z"  p-id="4938"></path></svg>