<svg t="1563877236784" class="icon" viewBox="0 0 1024 1024" version="1.1" xmlns="http://www.w3.org/2000/svg" p-id="5234" width="128" height="128"><path d="M940.8 512C940.8 454.4 972.8 403.2 1024 384 998.4 294.4 947.2 211.2 883.2 147.2 838.4 179.2 774.4 185.6 723.2 160 672 128 646.4 76.8 652.8 19.2 608 6.4 556.8 0 512 0 460.8 0 416 6.4 371.2 19.2 377.6 70.4 352 128 300.8 160 249.6 192 185.6 185.6 140.8 147.2 76.8 211.2 25.6 294.4 0 384 51.2 403.2 83.2 454.4 83.2 512 83.2 569.6 51.2 620.8 0 640 25.6 729.6 76.8 812.8 140.8 876.8 185.6 844.8 249.6 838.4 300.8 864 352 896 377.6 947.2 371.2 1004.8 416 1017.6 467.2 1024 512 1024 563.2 1024 608 1017.6 652.8 1004.8 646.4 953.6 672 896 723.2 864 774.4 832 838.4 838.4 883.2 876.8 947.2 812.8 998.4 729.6 1024 640 972.8 620.8 940.8 569.6 940.8 512L940.8 512ZM512 723.2C390.4 723.2 294.4 627.2 294.4 512 294.4 396.8 390.4 300.8 512 300.8 633.6 300.8 729.6 396.8 729.6 512 729.6 627.2 633.6 723.2 512 723.2ZM512 640C582.692448 640 640 582.692448 640 512 640 441.307552 582.692448 384 512 384 441.307552 384 384 441.307552 384 512 384 582.692448 441.307552 640 512 640Z" p-id="5235"></path></svg>
