<svg width="16" height="16" viewBox="0 0 16 16" fill="none" xmlns="http://www.w3.org/2000/svg">
<path d="M10.3609 12.8357V11.7228H5.5817V12.8357H10.3609Z" fill="#C4C4C4"/>
<path d="M7.44753 8.72214H5.50532V9.28953H7.44753V8.72214Z" fill="#C4C4C4"/>
<path d="M5.50532 6.53987H7.44753V6.05977H5.50532V6.53987Z" fill="#C4C4C4"/>
<path d="M5.50532 7.89288H7.44753V7.38004H5.50532V7.89288Z" fill="#C4C4C4"/>
<path fill-rule="evenodd" clip-rule="evenodd" d="M7.81944 0.0402955C7.91628 -0.0134317 8.03398 -0.0134319 8.13082 0.0402953L15.7845 4.28654C16.0742 4.44724 15.9601 4.88809 15.6288 4.88809H14.0714C14.0722 4.90136 14.0726 4.91473 14.0726 4.9282V15.3582C14.0726 15.7126 13.7853 16 13.4308 16H2.359C2.00452 16 1.71716 15.7126 1.71716 15.3582V4.9282C1.71716 4.91473 1.71757 4.90136 1.71839 4.88809H0.321446C-0.00980213 4.88809 -0.123901 4.44724 0.165756 4.28654L7.81944 0.0402955ZM5.5817 14.2215H4.29416V10.6971H11.7139V14.2215H10.3609V13.8505H5.5817V14.2215ZM8.71325 8.72214V9.28953H12.5977V10.2388H4.26142V7.62009C4.0432 7.87106 3.81406 8.10019 3.59583 8.30751C3.41034 8.04564 2.96297 7.48916 2.7011 7.24911C3.65039 6.46349 4.57785 5.2196 5.13433 3.98662L6.3564 4.37943C6.33708 4.41983 6.31775 4.46052 6.29833 4.5014C6.19716 4.71443 6.09351 4.93267 5.9745 5.14322H7.65485C7.81852 4.77224 7.98219 4.3576 8.08039 4.03026L9.4334 4.33578C9.39793 4.40398 9.36247 4.47287 9.327 4.54175C9.22062 4.74838 9.11424 4.95501 9.00786 5.14322H12.1831V6.05977H8.71325V6.53987H11.6157V7.38004H8.71325V7.89288H11.6266V8.72214H8.71325Z" fill="#C4C4C4"/>
</svg>
