<?xml version="1.0" standalone="no"?><!DOCTYPE svg PUBLIC "-//W3C//DTD SVG 1.1//EN" "http://www.w3.org/Graphics/SVG/1.1/DTD/svg11.dtd"><svg t="1710219805675" class="icon" viewBox="0 0 1060 1024" version="1.1" xmlns="http://www.w3.org/2000/svg" p-id="2516" xmlns:xlink="http://www.w3.org/1999/xlink" width="207.03125" height="200"><path d="M484.3295 91.831851c-24.829536-15.097356-106.055806-57.519678-154.467162-84.47033-42.172779-23.457049-55.024248 26.950652-59.016937 61.512367-3.992689 34.686487-3.992689 79.354697 40.301206 79.354697h162.452541c44.293895 0 44.293895-35.809431 10.730352-56.396734z m0 0M4.707714 267.260631v101.439259c-0.124772 37.556232 12.477154 56.521506 62.635311 56.521506h370.571463V216.229073H66.344853c-50.657244 0-61.637139 16.719386-61.637139 51.031558z m0 0" p-id="2517"></path><path d="M47.005265 899.977093c0.499086 78.231753 46.165469 122.899963 143.612038 122.899963h244.801755v-520.297307H47.005265c0-0.124772-0.499086 319.16559 0 397.397344z m0 0" p-id="2518"></path><path d="M1026.836141 271.502863c0-34.312173-14.972584-55.273791-65.629828-55.27379H595.875254v208.992323h368.200804c50.158158 0 62.760083-17.343244 62.760083-54.899476-0.249543-34.312173-0.124772-64.506884 0-98.819057z m0 0M770.680176 68.125259c-3.992689-34.561716-16.844157-84.969416-59.141708-61.512368C663.127112 33.563543 581.900842 76.110637 557.071306 91.207993c-33.563543 20.462532-33.563543 56.271963 10.730352 56.271963h162.45254c44.418667 0.124772 44.418667-44.792982 40.425978-79.354697z m0 0" p-id="2519"></path><path d="M595.875254 502.454977v520.297308h237.315462c97.44657 0 141.366151-48.910442 141.865237-127.142196 0.623858-78.231753-0.124772-393.155111-0.124771-393.155112H595.875254z m0 0" p-id="2520"></path></svg>