<?xml version="1.0" standalone="no"?><!DOCTYPE svg PUBLIC "-//W3C//DTD SVG 1.1//EN" "http://www.w3.org/Graphics/SVG/1.1/DTD/svg11.dtd"><svg t="1710412079096" class="icon" viewBox="0 0 1024 1024" version="1.1" xmlns="http://www.w3.org/2000/svg" p-id="1500" xmlns:xlink="http://www.w3.org/1999/xlink" width="200" height="200"><path d="M874.3424 683.8784a28.55936 28.55936 0 0 1 0 40.3456l-40.4992 40.5504a28.7744 28.7744 0 0 1-20.224 8.3456c-7.5776 0-14.7968-3.0208-20.1728-8.3456l-238.4896-238.4896-126.2592 126.2592a36.1728 36.1728 0 0 1-25.4464 10.496c-9.5232 0-18.688-3.7888-25.3952-10.496l-131.7888-131.7888A36.00384 36.00384 0 0 1 235.52 495.3088c0-9.5232 3.7888-18.688 10.5472-25.3952l333.4144-333.4656a36.05504 36.05504 0 0 1 25.3952-10.496c9.5744 0 18.688 3.7888 25.4464 10.496l131.7888 131.7888a36.00384 36.00384 0 0 1 10.5472 25.4464c0 9.5232-3.7888 18.688-10.5472 25.3952l-126.2592 126.3104 238.4896 238.4896zM403.2512 620.032L278.528 495.3088 604.8768 168.96l124.7232 124.7232-151.7056 151.7056 258.7136 258.6624-22.9888 22.9888-258.6624-258.7136-151.7056 151.7056z" p-id="1501"></path><path d="M509.2864 732.16c5.4272 0 10.6496 2.1504 14.4896 5.9904a20.50048 20.50048 0 0 1 0 28.9792c-3.84 3.84-9.0624 5.9904-14.4896 5.9904H199.68c-5.4272 0-10.6496-2.1504-14.4896-5.9904a20.50048 20.50048 0 0 1 0-28.9792c3.84-3.84 9.0624-5.9904 14.4896-5.9904h309.6064z" p-id="1502"></path></svg>