<?xml version="1.0" standalone="no"?><!DOCTYPE svg PUBLIC "-//W3C//DTD SVG 1.1//EN" "http://www.w3.org/Graphics/SVG/1.1/DTD/svg11.dtd"><svg t="1710124635698" class="icon" viewBox="0 0 1024 1024" version="1.1" xmlns="http://www.w3.org/2000/svg" p-id="1471" xmlns:xlink="http://www.w3.org/1999/xlink" width="200" height="200"><path d="M675.84 541.482667l-2.858667 0.853333a64.938667 64.938667 0 0 1-17.664 2.645333c-26.026667 0-40.704-17.578667-32.853333-39.296 5.802667-15.872 20.949333-29.269333 39.466667-35.456 28.672-10.453333 48.725333-34.304 48.725333-62.08 0-37.418667-36.394667-67.712-81.28-67.712s-81.237333 30.293333-81.237333 67.712v207.701334c0 49.92-28.970667 93.738667-72.277334 118.528a163.370667 163.370667 0 0 1-81.237333 21.418666c-84.650667 0-153.514667-62.762667-153.514667-139.946666 0-24.576 6.997333-47.658667 19.242667-67.712 18.944-31.146667 50.517333-54.912 88.32-65.749334a66.133333 66.133333 0 0 1 19.626667-3.114666c26.112 0 40.874667 17.664 32.981333 39.424-5.376 14.805333-19.882667 27.52-36.736 34.261333a92.245333 92.245333 0 0 0-5.930667 2.218667c-26.794667 11.093333-45.269333 34.048-45.269333 60.672 0 37.418667 36.394667 67.712 81.28 67.712s81.237333-30.293333 81.237333-67.712V408.149333c0-49.92 28.970667-93.738667 72.277334-118.528a163.370667 163.370667 0 0 1 81.237333-21.418666c84.650667 0 153.514667 62.762667 153.514667 139.946666 0 24.576-6.997333 47.658667-19.242667 67.712-18.858667 30.976-50.261333 54.698667-87.808 65.621334zM85.333333 512c0 235.648 191.018667 426.666667 426.666667 426.666667s426.666667-191.018667 426.666667-426.666667S747.648 85.333333 512 85.333333 85.333333 276.352 85.333333 512z" p-id="1472"></path></svg>