<svg width="16" height="16" viewBox="0 0 16 16" fill="none" xmlns="http://www.w3.org/2000/svg">
<path d="M5.11896 9.65359C5.23395 9.38823 5.37548 8.98133 5.44624 8.68059H4.11057C4.26094 8.98133 4.37593 9.38823 4.41132 9.65359L3.96904 9.77743H5.70276L5.11896 9.65359Z" fill="#C4C4C4"/>
<path fill-rule="evenodd" clip-rule="evenodd" d="M0 0.260162C0 0.116479 0.116479 0 0.260163 0H7.09485C7.23853 0 7.35501 0.116479 7.35501 0.260163V5.72358H7.99458V2.21138C7.99458 2.0677 8.11106 1.95122 8.25474 1.95122H15.0894C15.2331 1.95122 15.3496 2.0677 15.3496 2.21138V12.748C15.3496 12.8917 15.2331 13.0081 15.0894 13.0081H11.9675V15.4797C11.9675 15.767 11.7345 16 11.4472 16H2.21138C1.92401 16 1.69106 15.767 1.69106 15.4797V13.0081H0.260163C0.116479 13.0081 0 12.8917 0 12.748V0.260162ZM1.24932 6.37398H1.69106V7.54472H1.24932C1.17748 7.54472 1.11924 7.48648 1.11924 7.41463V6.50406C1.11924 6.43222 1.17748 6.37398 1.24932 6.37398ZM1.24932 8.45528H1.69106V9.62602H1.24932C1.17748 9.62602 1.11924 9.56778 1.11924 9.49593V8.58537C1.11924 8.51352 1.17748 8.45528 1.24932 8.45528ZM1.24932 10.5366H1.69106V11.7073H1.24932C1.17748 11.7073 1.11924 11.6491 1.11924 11.5772V10.6667C1.11924 10.5948 1.17748 10.5366 1.24932 10.5366ZM1.11924 2.34146C1.11924 2.26962 1.17748 2.21138 1.24932 2.21138H3.22764C3.29948 2.21138 3.35772 2.26962 3.35772 2.34146V3.25203C3.35772 3.32387 3.29948 3.38211 3.22764 3.38211H1.24932C1.17748 3.38211 1.11924 3.32387 1.11924 3.25203V2.34146ZM4.15718 2.34146C4.15718 2.26962 4.21542 2.21138 4.28726 2.21138H6.26558C6.33743 2.21138 6.39566 2.26962 6.39566 2.34146V3.25203C6.39566 3.32387 6.33743 3.38211 6.26558 3.38211H4.28726C4.21542 3.38211 4.15718 3.32387 4.15718 3.25203V2.34146ZM1.11924 4.42276C1.11924 4.35092 1.17748 4.29268 1.24932 4.29268H3.22764C3.29948 4.29268 3.35772 4.35092 3.35772 4.42276V5.33333C3.35772 5.40517 3.29948 5.46341 3.22764 5.46341H1.24932C1.17748 5.46341 1.11924 5.40517 1.11924 5.33333V4.42276ZM4.15718 4.42276C4.15718 4.35092 4.21542 4.29268 4.28726 4.29268H6.26558C6.33743 4.29268 6.39566 4.35092 6.39566 4.42276V5.33333C6.39566 5.40517 6.33743 5.46341 6.26558 5.46341H4.28726C4.21542 5.46341 4.15718 5.40517 4.15718 5.33333V4.42276ZM12.4417 6.37398C12.3699 6.37398 12.3117 6.43222 12.3117 6.50406V7.41463C12.3117 7.48648 12.3699 7.54472 12.4417 7.54472H14.4201C14.4919 7.54472 14.5501 7.48648 14.5501 7.41463V6.50406C14.5501 6.43222 14.4919 6.37398 14.4201 6.37398H12.4417ZM9.27371 4.42276C9.27371 4.35092 9.33195 4.29268 9.40379 4.29268H11.3821C11.454 4.29268 11.5122 4.35092 11.5122 4.42276V5.33333C11.5122 5.40517 11.454 5.46341 11.3821 5.46341H9.40379C9.33195 5.46341 9.27371 5.40517 9.27371 5.33333V4.42276ZM12.3117 4.42276C12.3117 4.35092 12.3699 4.29268 12.4417 4.29268H14.4201C14.4919 4.29268 14.5501 4.35092 14.5501 4.42276V5.33333C14.5501 5.40517 14.4919 5.46341 14.4201 5.46341H12.4417C12.3699 5.46341 12.3117 5.40517 12.3117 5.33333V4.42276ZM12.4417 8.45528C12.3699 8.45528 12.3117 8.51352 12.3117 8.58537V9.49593C12.3117 9.56778 12.3699 9.62602 12.4417 9.62602H14.4201C14.4919 9.62602 14.5501 9.56778 14.5501 9.49593V8.58537C14.5501 8.51352 14.4919 8.45528 14.4201 8.45528H12.4417ZM12.3117 10.6667C12.3117 10.5948 12.3699 10.5366 12.4417 10.5366H14.4201C14.4919 10.5366 14.5501 10.5948 14.5501 10.6667V11.5772C14.5501 11.6491 14.4919 11.7073 14.4201 11.7073H12.4417C12.3699 11.7073 12.3117 11.6491 12.3117 11.5772V10.6667ZM6.79076 12.21H5.33125V12.2807C5.59974 12.4672 6.16377 12.9114 6.45605 13.1416C6.51043 13.1845 6.5554 13.2199 6.58732 13.2449L5.97697 13.9967C5.83545 13.8198 5.58777 13.5545 5.33125 13.3068V15.1909H4.31402V13.4129C3.96904 13.9083 3.57099 14.3506 3.19063 14.6602C3.03141 14.4302 2.73067 14.0852 2.50953 13.9171C3.08449 13.5368 3.69483 12.8734 4.10172 12.21H2.7572V11.3254H4.31402V10.6443H2.73067V9.77743H3.54445C3.50907 9.48553 3.40293 9.10517 3.27909 8.80442L3.81867 8.68059H2.82797V7.82257H4.31402V7.01763H5.33125V7.82257H6.79961V8.68059H5.88852L6.40156 8.77789C6.35992 8.87737 6.31948 8.97504 6.28026 9.06979C6.16952 9.33728 6.06842 9.58147 5.97697 9.77743H6.87037V10.6443H5.33125V11.3254H6.79076V12.21ZM8.12644 9.85704H10.8862V10.83H10.0459V15.1555H9.02868V10.83H8.12644C8.11759 12.148 7.93184 14.0144 6.76423 15.2263C6.63154 14.9963 6.25119 14.6336 6.01236 14.5098C7.02959 13.4306 7.13574 11.9269 7.13574 10.7062V7.64566L7.74608 7.81372C8.58641 7.61028 9.46211 7.32722 10.0017 7.03532L10.842 7.80488C10.0636 8.14985 9.05522 8.42407 8.12644 8.61867V9.85704Z" fill="#C4C4C4"/>
</svg>
