<svg t="1583487484604" class="icon" viewBox="0 0 1024 1024" version="1.1" xmlns="http://www.w3.org/2000/svg" p-id="6925" width="200" height="200"><path d="M514.955308 548.284391 514.955308 548.284391 514.955308 548.284391Z" p-id="6926"></path><path d="M543.113625 839.128479l-1.627057 0c-9.266038-9.05933-55.408961-56.225559-62.311161-99.020224-7.674796-47.581692 90.453105-122.335233 90.453105-122.335233l6.89913-33.799804c-14.277168-6.644327-23.721261-11.32493-29.420053-14.274098l-0.460488-52.560076c10.013051-9.395998 25.231661-30.116925 32.764218-72.825632 14.507412-5.507434 23.74889-23.919782 25.310456-51.462069 0.138146-2.26253 0.460488-5.262864 0.825808-8.706289 2.738367-26.114774 4.120854-48.771797-6.821359-61.610196-0.921999-1.080611-1.905396-2.065032-2.950192-2.933819 3.778046-31.182186 5.688559-53.79009 4.308119-68.283176-2.724041-29.541827-21.439288-126.385479-149.784398-132.140553-89.064478 4.78805-143.078673 71.644737-148.683321 132.107807-1.226944 13.114692-0.008186 33.920554 4.058432 68.332295-1.045819 0.88516-2.030239 1.86958-2.950192 2.935865-10.927887 12.769838-9.622148 35.362392-6.976902 61.397349 0.35918 3.507894 0.678452 6.573719 0.811482 8.92016 1.662873 27.574009 10.894118 45.969984 25.310456 51.510164 7.498788 42.741453 22.719444 63.513546 32.723286 72.92387l-0.514723 52.873208c-10.527774 5.555529-33.519418 16.951067-78.285994 36.428677-33.17661 14.459317-44.36851 16.410762-54.242392 18.132986-11.752672 2.049682-21.905916 3.817955-53.647851 20.409842-78.465073 41.020252-95.697549 124.56604-99.476619 160.405293l-0.097214 0c-0.926092 5.857405-3.612271 25.239847-0.305969 34.656311 8.648984 18.72855 28.493961 32.495088 49.782823 32.495088l377.269459 0 0 0.051165 48.102554 0 0-0.360204 0-31.708166-0.067538 0L543.109532 839.128479zM514.955308 548.284391 514.955308 548.284391 514.955308 548.284391 514.955308 548.284391z" p-id="6927"></path><path d="M960.811866 712.197578c-0.51984-0.668219-1.12052-1.26583-1.789763-1.784646l-19.59222-19.533892-189.485609-189.485609-3.578502 3.578502-0.975211-0.972141L558.099944 690.878017l-20.029172 19.882839c-0.13303 0.125867-0.264013 0.254803-0.390903 0.387833-1.746784 1.835811-2.826372 4.313236-2.826372 7.04751 0 5.65172 4.581342 10.233062 10.233062 10.233062l14.128789 0 0 0.017396 48.102554 0 0 176.377056 16.034185 0 16.034185 0 224.479611 0 32.06837 0 0-32.06837L895.934253 728.446657l48.102554 0 0-0.017396 8.835226 0c5.557576 0 10.06217-4.505617 10.06217-10.06217C962.936249 716.03907 962.13807 713.902406 960.811866 712.197578z" p-id="6928"></path></svg>