<svg t="1564036310278" class="icon" viewBox="0 0 1024 1024" version="1.1" xmlns="http://www.w3.org/2000/svg" p-id="2186" width="128" height="128"><path d="M887.637333 170.5984H870.4a17.237333 17.237333 0 0 1-17.237333-17.237333v-68.096c0-37.546667-30.72-68.266667-68.266667-68.266667h-648.533333c-37.546667 0-68.266667 30.72-68.266667 68.266667v238.933333c0 37.546667 30.72 68.266667 68.266667 68.266667h648.533333c37.546667 0 68.266667-30.72 68.266667-68.266667v-68.096a17.237333 17.237333 0 1 1 34.474666 0v187.392a17.237333 17.237333 0 0 1-17.237333 17.237333H492.970667a68.266667 68.266667 0 0 0-68.266667 68.266667v65.467733c-36.7104 0.9728-66.491733 31.146667-66.491733 68.078934v276.1728c0 37.546667 30.72 68.266667 68.266666 68.266666h68.266667c37.546667 0 68.266667-30.72 68.266667-68.266666V662.562133c0-37.546667-30.72-68.266667-68.266667-68.266666h-1.774933v-65.297067H887.637333a68.266667 68.266667 0 0 0 68.266667-68.266667v-221.866666a68.266667 68.266667 0 0 0-68.266667-68.266667zM153.2416 119.1424c0-18.773333 15.36-34.133333 34.133333-34.133333h546.133334c18.773333 0 34.133333 15.36 34.133333 34.133333s-15.36 34.133333-34.133333 34.133333h-546.133334c-18.773333 0-34.133333-15.36-34.133333-34.133333z" p-id="2187"></path></svg>
