<svg width="17" height="17" viewBox="0 0 17 17" fill="none" xmlns="http://www.w3.org/2000/svg">
<path d="M11.0086 11.3989H9.12095V12.981H11.0086V11.3989Z" fill="#C4C4C4"/>
<path d="M11.0086 7.53628V6.06325H9.12095V7.53628H11.0086Z" fill="#C4C4C4"/>
<path d="M9.12095 10.2314H11.0086V8.70379H9.12095V10.2314Z" fill="#C4C4C4"/>
<path fill-rule="evenodd" clip-rule="evenodd" d="M8.11802 0.327466C8.21487 0.273739 8.33257 0.273739 8.42941 0.327466L16.0831 4.57371C16.3727 4.73441 16.2586 5.17526 15.9274 5.17526H14.37C14.3708 5.18853 14.3712 5.2019 14.3712 5.21537V15.6453C14.3712 15.9998 14.0839 16.2872 13.7294 16.2872H2.65759C2.30311 16.2872 2.01574 15.9998 2.01574 15.6453V5.21537C2.01574 5.2019 2.01616 5.18853 2.01698 5.17526H0.62003C0.288782 5.17526 0.174683 4.73441 0.46434 4.57371L8.11802 0.327466ZM5.98939 8.71471C6.27309 8.98749 7.26602 10.1659 7.46242 10.4605L6.72045 11.4862C6.56769 11.137 6.284 10.6133 5.98939 10.1332V14.5086H4.75641V10.6133C4.40725 11.4316 4.01444 12.1954 3.5889 12.741C3.46887 12.37 3.18518 11.8353 2.98878 11.508C3.5889 10.8097 4.19993 9.64217 4.58183 8.58377H3.11971V7.37261H4.75641V6.13963C4.72361 6.14481 4.69087 6.14999 4.65821 6.15516C4.27797 6.21532 3.90698 6.27402 3.54525 6.31421C3.50161 6.01961 3.33794 5.58315 3.19609 5.29946C4.43998 5.11396 5.8039 4.78662 6.70954 4.40473L7.42969 5.46313C6.99324 5.6268 6.50223 5.76864 5.98939 5.88867V7.37261H7.3424V8.58377H5.98939V8.71471ZM12.3289 4.863V12.981H13.2563V14.1813H6.84048V12.981H7.86614V4.863H12.3289Z" fill="#C4C4C4"/>
</svg>
