<svg width="120" height="50" viewBox="0 0 120 50" fill="none" xmlns="http://www.w3.org/2000/svg">
<g clip-path="url(#clip0_1405_484)">
<g clip-path="url(#clip1_1405_484)">
<path d="M43.5879 20.9482C43.5879 20.9482 51.174 12.6613 60.7471 14.0837C67.932 15.1513 71.2031 19.0291 72.7586 21.1291H68.0627C68.0627 21.1291 64.5887 17.9513 59.7541 17.3164C55.3597 16.7392 51.8064 16.9697 43.5879 20.9482Z" fill="#1989FA"/>
<path d="M57.8574 14.7291C57.8574 14.7291 55.8305 6.8322 46.3175 5.265C36.8045 3.69779 28.0745 9.2033 21.5723 18.567L29.4396 17.1604C29.4396 17.1604 36.2018 6.94729 45.8965 8.68066C51.5158 9.68535 54.5262 12.217 55.6502 15.151L57.8574 14.7291Z" fill="#1989FA"/>
<path d="M28.2351 18.9889C28.2351 18.9889 11.919 21.7112 10.1727 32.3714C8.72764 41.1925 16.6754 44.2468 21.853 44.2468C28.1548 44.2468 61.2293 44.2468 61.2293 44.2468L61.6506 42.2573C61.6506 42.2573 36.7048 42.3707 26.2289 42.2573C20.6497 42.1972 16.3944 40.5096 16.3944 34.3604C16.3944 29.1159 20.8901 25.0894 26.5496 23.1542L28.2351 18.9889Z" fill="#24DD7F"/>
</g>
<g clip-path="url(#clip2_1405_484)">
<path d="M29.7254 23.5268H32.8633L32.6123 24.9171H46.6741V27.1241H32.2279L32.0004 28.3769L45.7877 28.3573V30.7018C45.2856 31.9323 44.6711 33.0215 43.9441 33.9693C43.2146 34.9196 42.3726 35.7588 41.4181 36.4866C42.1451 36.7458 42.9152 36.9474 43.7284 37.0914C44.539 37.2354 45.4216 37.3296 46.376 37.3741V39.8129C44.8149 39.8286 43.3898 39.7108 42.1006 39.4595C40.8114 39.2081 39.5981 38.7866 38.4606 38.1949C37.4303 38.6505 36.3229 39.0196 35.1383 39.3024C33.9564 39.5825 32.6829 39.7907 31.3179 39.9268V37.2406C32.1364 37.1176 32.9065 36.9723 33.6282 36.8047C34.3473 36.6398 35.0324 36.4499 35.6835 36.2353C35.0324 35.6436 34.4035 34.9641 33.7969 34.197C33.1902 33.4299 32.5914 32.5686 32.0004 31.6129H35.5266C35.9816 32.2963 36.4549 32.9115 36.9466 33.4587C37.4408 34.0059 37.9611 34.4837 38.5077 34.8921C40.0845 33.8894 41.3279 32.4926 42.2379 30.7018H42.281L31.5689 30.7254L29.9529 39.7658H26.811L29.086 27.1241H26.8816V24.9171H29.4744L29.7254 23.5268Z" fill="#246FDD"/>
<path d="M45.7877 30.7018V28.3573L32.0004 28.3769L32.2279 27.1241H46.6741V24.9171H32.6123L32.8633 23.5268H29.7254L29.4744 24.9171H26.8816V27.1241H29.086L26.811 39.7658H29.9529L31.5689 30.7254L42.281 30.7018H42.2379C41.3279 32.4926 40.0845 33.8894 38.5077 34.8921C37.9611 34.4837 37.4408 34.0059 36.9466 33.4587C36.4549 32.9115 35.9816 32.2963 35.5266 31.6129H32.0004C32.5914 32.5686 33.1902 33.4299 33.7969 34.197C34.4035 34.9641 35.0324 35.6436 35.6835 36.2353C35.0324 36.4499 34.3473 36.6398 33.6282 36.8047C32.9065 36.9723 32.1364 37.1176 31.3179 37.2406V39.9268C32.6829 39.7907 33.9564 39.5825 35.1383 39.3024C36.3229 39.0196 37.4303 38.6505 38.4606 38.1949C39.5981 38.7866 40.8114 39.2081 42.1006 39.4595C43.3898 39.7108 44.8149 39.8286 46.376 39.8129V37.3741C45.4216 37.3296 44.539 37.2354 43.7284 37.0914C42.9152 36.9474 42.1451 36.7458 41.4181 36.4866C42.3726 35.7588 43.2146 34.9196 43.9441 33.9693C44.6711 33.0215 45.2856 31.9323 45.7877 30.7018ZM45.7877 30.7018H45.7171" stroke="#246FDD" stroke-width="0.194"/>
<path d="M49.8358 32.8657H47.7412L49.6553 28.9464H47.7412L50.4281 23.4601H54.0445L52.1343 27.3519H54.0445L52.3147 30.9061H53.1345V39.974H49.8358V32.8657ZM57.912 30.5644H55.4762H54.7741V23.4601H55.4762H57.912H64.2585H67.4003V25.3491V26.0992V27.9921V28.0824C67.4003 28.4306 67.335 28.7526 67.2042 29.0485C67.0761 29.347 66.8983 29.6101 66.6708 29.8379C66.4433 30.0656 66.1779 30.2437 65.8745 30.372C65.5712 30.5002 65.2522 30.5644 64.9175 30.5644H57.912ZM57.912 28.6518H63.5328C63.729 28.6518 63.8911 28.5877 64.0192 28.4594C64.15 28.3285 64.2219 28.1727 64.235 27.9921H57.912V28.6518ZM64.2585 25.3491H57.912V26.0992H64.2585V25.3491ZM61.2775 37.7865H61.8266C62.0384 37.7865 62.2123 37.7184 62.3483 37.5823C62.4843 37.4435 62.5522 37.276 62.5522 37.0796V35.9643H54.7937V33.9811H62.5522V33.1838H55.1153V31.2242H67.2866V33.1838H65.851V33.9811H67.6278V35.9643H65.851V37.3742C65.851 37.725 65.7869 38.0483 65.6588 38.3442C65.5307 38.64 65.3528 38.9018 65.1253 39.1296C64.8978 39.3574 64.6324 39.5394 64.3291 39.6755C64.0258 39.8116 63.7067 39.8797 63.372 39.8797C63.1602 39.8797 62.9249 39.8797 62.666 39.8797C62.4097 39.8797 62.1443 39.8836 61.8697 39.8915C61.5978 39.8994 61.3285 39.9033 61.0617 39.9033C60.7976 39.9033 60.5662 39.9033 60.3675 39.9033L61.2775 37.7865ZM56.751 39.5616L55.6841 36.6476H58.7083L59.7791 39.5616H56.751Z" fill="#246FDD" stroke="#246FDD" stroke-width="0.194"/>
<path d="M69.4908 39.4713L73.3151 31.3852H68.6514V29.0406H88.5576V31.3852H76.6805L73.9741 37.1268H83.8939L82.3916 34.0714H85.7139L88.5576 39.9033H85.2589L85.0314 39.4713H72.8797H69.4908ZM69.9928 25.895V23.5504H87.2122V25.895H69.9928Z" fill="#246FDD" stroke="#246FDD" stroke-width="0.194"/>
<path d="M106.961 29.6768H106.914C106.475 30.1638 105.982 30.6037 105.436 30.9964C104.889 31.3917 104.298 31.7412 103.663 32.0449C104.664 32.1209 105.638 32.1667 106.585 32.1824C107.534 32.1981 108.432 32.206 109.28 32.206V34.1421C108.521 34.1578 107.711 34.1656 106.848 34.1656C105.982 34.1656 105.084 34.1499 104.153 34.1185C103.219 34.0871 102.274 34.0334 101.317 33.9575C100.363 33.8816 99.4303 33.7677 98.5203 33.6158C97.1396 33.8593 95.6988 34.0269 94.1978 34.1185C92.6969 34.2101 91.1501 34.2638 89.5576 34.2795V32.206C90.1643 32.2217 90.7971 32.2177 91.4561 32.1942C92.115 32.1706 92.7936 32.1366 93.4918 32.0921C92.6576 31.6653 91.9751 31.1639 91.4443 30.5879H95.5864C96.0571 30.7555 96.5382 30.9034 97.0298 31.0317C97.524 31.16 98.0287 31.2857 98.5439 31.4087C99.5454 31.1967 100.455 30.9492 101.274 30.6665C102.092 30.3863 102.767 30.0565 103.298 29.6768H90.9658L91.6483 28.1295H89.5576V24.4615H97.7908L97.3593 23.4797H101.274L101.705 24.4615H107.052C107.399 24.4615 107.725 24.5257 108.028 24.6539C108.332 24.7822 108.594 24.9603 108.817 25.188C109.036 25.4158 109.21 25.6816 109.338 25.9853C109.466 26.289 109.531 26.6084 109.531 26.9435V28.1295H106.961V29.6768ZM92.6955 27.081H95.4726L95.1745 27.7643H106.416V26.8964C106.416 26.7 106.347 26.5338 106.208 26.3976C106.072 26.2615 105.906 26.1934 105.71 26.1934H92.6955V27.081ZM108.052 34.849V37.4684C108.052 37.8166 107.988 38.1386 107.86 38.4345C107.731 38.7303 107.554 38.9922 107.326 39.2199C107.099 39.4477 106.833 39.6271 106.53 39.758C106.227 39.8863 105.9 39.9504 105.549 39.9504H91.4443V34.849H108.052ZM105.165 37.5116V36.5769H94.3351V38.2185H104.435C104.647 38.2185 104.821 38.1504 104.957 38.0143C105.096 37.8781 105.165 37.7106 105.165 37.5116Z" fill="#246FDD" stroke="#246FDD" stroke-width="0.194"/>
</g>
</g>
<defs>
<clipPath id="clip0_1405_484">
<rect width="120" height="50" fill="white"/>
</clipPath>
<clipPath id="clip1_1405_484">
<rect width="62.7586" height="39.2468" fill="white" transform="translate(10 5)"/>
</clipPath>
<clipPath id="clip2_1405_484">
<rect width="83.908" height="17.2414" fill="white" transform="translate(26.0103 22.8993)"/>
</clipPath>
</defs>
</svg>
